<svg xmlns="http://www.w3.org/2000/svg" xmlns:xlink="http://www.w3.org/1999/xlink" viewBox="0 0 161.11 308.6"><defs><style>.cls-1{isolation:isolate;}.cls-16,.cls-2,.cls-28,.cls-40,.cls-63{opacity:0.3;}.cls-2{fill:url(#linear-gradient);}.cls-3{opacity:0.34;fill:url(#linear-gradient-2);}.cls-4{opacity:0.37;fill:url(#linear-gradient-3);}.cls-5{opacity:0.41;fill:url(#linear-gradient-4);}.cls-6{opacity:0.45;fill:url(#linear-gradient-5);}.cls-7{opacity:0.48;fill:url(#linear-gradient-6);}.cls-8{opacity:0.52;fill:url(#linear-gradient-7);}.cls-9{opacity:0.55;fill:url(#linear-gradient-8);}.cls-10{opacity:0.59;fill:url(#linear-gradient-9);}.cls-11{opacity:0.63;fill:url(#linear-gradient-10);}.cls-12{opacity:0.66;fill:url(#linear-gradient-11);}.cls-13,.cls-43,.cls-65{opacity:0.7;}.cls-13{fill:url(#linear-gradient-12);}.cls-14,.cls-41{opacity:0.4;}.cls-14{fill:url(#linear-gradient-13);}.cls-15,.cls-27{opacity:0.8;}.cls-15{fill:url(#linear-gradient-14);}.cls-16{fill:url(#linear-gradient-15);}.cls-17{opacity:0.35;fill:url(#linear-gradient-16);}.cls-18{opacity:0.39;fill:url(#linear-gradient-17);}.cls-19{opacity:0.44;fill:url(#linear-gradient-18);}.cls-20{opacity:0.48;fill:url(#linear-gradient-19);}.cls-21{opacity:0.53;fill:url(#linear-gradient-20);}.cls-22{opacity:0.57;fill:url(#linear-gradient-21);}.cls-23{opacity:0.62;fill:url(#linear-gradient-22);}.cls-24{opacity:0.66;fill:url(#linear-gradient-23);}.cls-25{opacity:0.71;fill:url(#linear-gradient-24);}.cls-26{opacity:0.75;fill:url(#linear-gradient-25);}.cls-27{fill:url(#linear-gradient-26);}.cls-28{fill:url(#linear-gradient-27);}.cls-29{opacity:0.35;fill:url(#linear-gradient-28);}.cls-30{opacity:0.41;fill:url(#linear-gradient-29);}.cls-31{opacity:0.46;fill:url(#linear-gradient-30);}.cls-32{opacity:0.52;fill:url(#linear-gradient-31);}.cls-33{opacity:0.57;fill:url(#linear-gradient-32);}.cls-34{opacity:0.63;fill:url(#linear-gradient-33);}.cls-35{opacity:0.68;fill:url(#linear-gradient-34);}.cls-36{opacity:0.74;fill:url(#linear-gradient-35);}.cls-37{opacity:0.79;fill:url(#linear-gradient-36);}.cls-38{opacity:0.85;fill:url(#linear-gradient-37);}.cls-39{opacity:0.9;fill:url(#linear-gradient-38);}.cls-40{fill:url(#linear-gradient-39);}.cls-41{fill:url(#linear-gradient-40);}.cls-42,.cls-60,.cls-64{opacity:0.5;}.cls-42{fill:url(#linear-gradient-41);}.cls-43{fill:url(#linear-gradient-42);}.cls-44{fill:url(#New_Gradient_Swatch_copy_13);}.cls-45{fill:url(#New_Gradient_Swatch_copy_13-2);}.cls-46,.cls-47,.cls-48,.cls-49,.cls-50,.cls-51,.cls-52,.cls-53,.cls-54,.cls-55,.cls-56,.cls-57,.cls-69{mix-blend-mode:screen;}.cls-46{fill:url(#linear-gradient-43);}.cls-47{fill:url(#Gradiente_sem_nome_81);}.cls-48{fill:url(#Gradiente_sem_nome_80);}.cls-49{fill:url(#Gradiente_sem_nome_79);}.cls-50{fill:url(#Gradiente_sem_nome_78);}.cls-51{fill:url(#Gradiente_sem_nome_77);}.cls-52{fill:url(#Gradiente_sem_nome_76);}.cls-53{fill:url(#Gradiente_sem_nome_75);}.cls-54{fill:url(#Gradiente_sem_nome_74);}.cls-55{fill:url(#Gradiente_sem_nome_73);}.cls-56{fill:url(#Gradiente_sem_nome_72);}.cls-57{fill:url(#linear-gradient-44);}.cls-58{fill:url(#linear-gradient-45);}.cls-59{fill:url(#linear-gradient-46);}.cls-60{fill:#c7bcd6;}.cls-60,.cls-64{mix-blend-mode:multiply;}.cls-61{fill:url(#linear-gradient-47);}.cls-62{fill:url(#linear-gradient-48);}.cls-63{fill:url(#linear-gradient-49);}.cls-64{fill:url(#radial-gradient);}.cls-65,.cls-71,.cls-74,.cls-77{mix-blend-mode:color-dodge;}.cls-65{fill:url(#radial-gradient-2);}.cls-66{fill:url(#linear-gradient-50);}.cls-67{fill:url(#linear-gradient-51);}.cls-68{fill:url(#New_Gradient_Swatch_copy_7);}.cls-69{fill:url(#White_Black_1);}.cls-70{fill:url(#linear-gradient-52);}.cls-71{fill:url(#Radial_Gradient_1);}.cls-72{fill:url(#linear-gradient-53);}.cls-73{fill:url(#New_Gradient_Swatch_copy_13-3);}.cls-74{fill:url(#Radial_Gradient_1-2);}.cls-75{fill:url(#linear-gradient-54);}.cls-76{fill:url(#New_Gradient_Swatch_copy_13-4);}.cls-77{fill:url(#Radial_Gradient_1-3);}</style><linearGradient id="linear-gradient" x1="106.92" y1="203.51" x2="61.36" y2="271" gradientUnits="userSpaceOnUse"><stop offset="0.01" stop-color="#fff"/><stop offset="0.21" stop-color="#f9f5fb"/><stop offset="0.56" stop-color="#e9dbf2"/><stop offset="0.97" stop-color="#d1b4e3"/></linearGradient><linearGradient id="linear-gradient-2" x1="106.67" y1="204.34" x2="62.05" y2="270.42" xlink:href="#linear-gradient"/><linearGradient id="linear-gradient-3" x1="106.41" y1="205.14" x2="62.71" y2="269.88" xlink:href="#linear-gradient"/><linearGradient id="linear-gradient-4" x1="106.18" y1="205.92" x2="63.33" y2="269.38" xlink:href="#linear-gradient"/><linearGradient id="linear-gradient-5" x1="105.94" y1="206.67" x2="63.9" y2="268.94" xlink:href="#linear-gradient"/><linearGradient id="linear-gradient-6" x1="105.71" y1="207.4" x2="64.43" y2="268.52" xlink:href="#linear-gradient"/><linearGradient id="linear-gradient-7" x1="105.32" y1="207.98" x2="64.75" y2="268.07" xlink:href="#linear-gradient"/><linearGradient id="linear-gradient-8" x1="104.85" y1="208.44" x2="64.88" y2="267.64" xlink:href="#linear-gradient"/><linearGradient id="linear-gradient-9" x1="104.3" y1="208.79" x2="64.83" y2="267.25" xlink:href="#linear-gradient"/><linearGradient id="linear-gradient-10" x1="103.75" y1="209.05" x2="64.64" y2="266.99" xlink:href="#linear-gradient"/><linearGradient id="linear-gradient-11" x1="102.96" y1="209.08" x2="64.09" y2="266.65" xlink:href="#linear-gradient"/><linearGradient id="linear-gradient-12" x1="102.08" y1="209.02" x2="63.41" y2="266.3" xlink:href="#linear-gradient"/><linearGradient id="linear-gradient-13" x1="78.78" y1="289.56" x2="66.86" y2="184.57" xlink:href="#linear-gradient"/><linearGradient id="linear-gradient-14" x1="78.41" y1="286.52" x2="68.92" y2="202.94" xlink:href="#linear-gradient"/><linearGradient id="linear-gradient-15" x1="67.03" y1="196.52" x2="78.75" y2="303.9" xlink:href="#linear-gradient"/><linearGradient id="linear-gradient-16" x1="67.17" y1="197.66" x2="78.7" y2="303.31" xlink:href="#linear-gradient"/><linearGradient id="linear-gradient-17" x1="67.31" y1="198.79" x2="78.65" y2="302.71" xlink:href="#linear-gradient"/><linearGradient id="linear-gradient-18" x1="67.44" y1="199.93" x2="78.6" y2="302.12" xlink:href="#linear-gradient"/><linearGradient id="linear-gradient-19" x1="67.58" y1="201.06" x2="78.54" y2="301.54" xlink:href="#linear-gradient"/><linearGradient id="linear-gradient-20" x1="67.7" y1="202.19" x2="78.48" y2="300.95" xlink:href="#linear-gradient"/><linearGradient id="linear-gradient-21" x1="67.82" y1="203.32" x2="78.42" y2="300.37" xlink:href="#linear-gradient"/><linearGradient id="linear-gradient-22" x1="67.94" y1="204.44" x2="78.35" y2="299.79" xlink:href="#linear-gradient"/><linearGradient id="linear-gradient-23" x1="68.06" y1="205.57" x2="78.28" y2="299.21" xlink:href="#linear-gradient"/><linearGradient id="linear-gradient-24" x1="68.17" y1="206.7" x2="78.21" y2="298.63" xlink:href="#linear-gradient"/><linearGradient id="linear-gradient-25" x1="68.28" y1="207.82" x2="78.13" y2="298.05" xlink:href="#linear-gradient"/><linearGradient id="linear-gradient-26" x1="68.38" y1="208.95" x2="78.04" y2="297.47" xlink:href="#linear-gradient"/><linearGradient id="linear-gradient-27" x1="79.78" y1="246.74" x2="87.42" y2="316.9" xlink:href="#linear-gradient"/><linearGradient id="linear-gradient-28" x1="79.56" y1="247.49" x2="87" y2="315.76" xlink:href="#linear-gradient"/><linearGradient id="linear-gradient-29" x1="79.35" y1="248.19" x2="86.59" y2="314.65" xlink:href="#linear-gradient"/><linearGradient id="linear-gradient-30" x1="79.15" y1="248.83" x2="86.2" y2="313.57" xlink:href="#linear-gradient"/><linearGradient id="linear-gradient-31" x1="78.96" y1="249.41" x2="85.83" y2="312.52" xlink:href="#linear-gradient"/><linearGradient id="linear-gradient-32" x1="78.79" y1="249.94" x2="85.49" y2="311.48" xlink:href="#linear-gradient"/><linearGradient id="linear-gradient-33" x1="78.65" y1="250.42" x2="85.19" y2="310.46" xlink:href="#linear-gradient"/><linearGradient id="linear-gradient-34" x1="78.57" y1="250.86" x2="84.95" y2="309.46" xlink:href="#linear-gradient"/><linearGradient id="linear-gradient-35" x1="78.64" y1="251.25" x2="84.87" y2="308.45" xlink:href="#linear-gradient"/><linearGradient id="linear-gradient-36" x1="78.84" y1="251.61" x2="84.92" y2="307.44" xlink:href="#linear-gradient"/><linearGradient id="linear-gradient-37" x1="79.21" y1="251.94" x2="85.14" y2="306.41" xlink:href="#linear-gradient"/><linearGradient id="linear-gradient-38" x1="79.94" y1="252.21" x2="85.72" y2="305.35" xlink:href="#linear-gradient"/><linearGradient id="linear-gradient-39" x1="78.56" y1="248.05" x2="25.93" y2="326" xlink:href="#linear-gradient"/><linearGradient id="linear-gradient-40" x1="76.86" y1="248.83" x2="28.36" y2="320.66" xlink:href="#linear-gradient"/><linearGradient id="linear-gradient-41" x1="76.19" y1="247.5" x2="30.46" y2="315.24" xlink:href="#linear-gradient"/><linearGradient id="linear-gradient-42" x1="75.43" y1="248.95" x2="34.32" y2="309.83" xlink:href="#linear-gradient"/><linearGradient id="New_Gradient_Swatch_copy_13" x1="107.01" y1="142.95" x2="166.92" y2="125.01" gradientUnits="userSpaceOnUse"><stop offset="0.04" stop-color="#6b24d6"/><stop offset="0.29" stop-color="#7733dc"/><stop offset="0.79" stop-color="#975ced"/><stop offset="1" stop-color="#a56ef4"/></linearGradient><linearGradient id="New_Gradient_Swatch_copy_13-2" x1="-112.19" y1="150.03" x2="-40.41" y2="133.94" gradientTransform="matrix(-1, 0, 0, 1, -37.15, 0)" xlink:href="#New_Gradient_Swatch_copy_13"/><linearGradient id="linear-gradient-43" x1="74.41" y1="194.57" x2="74.41" y2="235.05" gradientUnits="userSpaceOnUse"><stop offset="0" stop-color="#f8299a"/><stop offset="0.1" stop-color="#c9217d"/><stop offset="0.23" stop-color="#94195c"/><stop offset="0.36" stop-color="#671140"/><stop offset="0.49" stop-color="#420b29"/><stop offset="0.62" stop-color="#250617"/><stop offset="0.75" stop-color="#10030a"/><stop offset="0.88" stop-color="#040103"/><stop offset="1"/></linearGradient><linearGradient id="Gradiente_sem_nome_81" x1="74.41" y1="194.62" x2="74.41" y2="234.46" gradientUnits="userSpaceOnUse"><stop offset="0" stop-color="#f93a9b"/><stop offset="0.08" stop-color="#d63285"/><stop offset="0.22" stop-color="#9e2562"/><stop offset="0.36" stop-color="#6e1a44"/><stop offset="0.49" stop-color="#46102c"/><stop offset="0.63" stop-color="#270919"/><stop offset="0.76" stop-color="#12040b"/><stop offset="0.88" stop-color="#040103"/><stop offset="1"/></linearGradient><linearGradient id="Gradiente_sem_nome_80" x1="74.41" y1="194.67" x2="74.41" y2="233.86" gradientUnits="userSpaceOnUse"><stop offset="0" stop-color="#f94b9c"/><stop offset="0.05" stop-color="#e4458f"/><stop offset="0.2" stop-color="#a9336a"/><stop offset="0.35" stop-color="#752349"/><stop offset="0.49" stop-color="#4b172f"/><stop offset="0.63" stop-color="#2a0d1b"/><stop offset="0.77" stop-color="#13060c"/><stop offset="0.89" stop-color="#050103"/><stop offset="1"/></linearGradient><linearGradient id="Gradiente_sem_nome_79" x1="74.41" y1="194.72" x2="74.41" y2="233.27" gradientUnits="userSpaceOnUse"><stop offset="0" stop-color="#fa5c9e"/><stop offset="0.01" stop-color="#f55a9b"/><stop offset="0.17" stop-color="#b54373"/><stop offset="0.33" stop-color="#7e2e50"/><stop offset="0.49" stop-color="#511e33"/><stop offset="0.64" stop-color="#2e111d"/><stop offset="0.77" stop-color="#15080d"/><stop offset="0.9" stop-color="#050203"/><stop offset="1"/></linearGradient><linearGradient id="Gradiente_sem_nome_78" x1="74.41" y1="194.77" x2="74.41" y2="232.68" gradientUnits="userSpaceOnUse"><stop offset="0" stop-color="#fb6d9f"/><stop offset="0.14" stop-color="#c3557c"/><stop offset="0.32" stop-color="#893b57"/><stop offset="0.48" stop-color="#582638"/><stop offset="0.64" stop-color="#32161f"/><stop offset="0.78" stop-color="#160a0e"/><stop offset="0.9" stop-color="#060304"/><stop offset="1"/></linearGradient><linearGradient id="Gradiente_sem_nome_77" x1="74.41" y1="194.83" x2="74.41" y2="232.09" gradientUnits="userSpaceOnUse"><stop offset="0" stop-color="#fb7ea0"/><stop offset="0.1" stop-color="#d56b88"/><stop offset="0.29" stop-color="#954b5f"/><stop offset="0.47" stop-color="#60303d"/><stop offset="0.63" stop-color="#361b23"/><stop offset="0.78" stop-color="#190c10"/><stop offset="0.91" stop-color="#060304"/><stop offset="1"/></linearGradient><linearGradient id="Gradiente_sem_nome_76" x1="74.41" y1="194.88" x2="74.41" y2="231.5" gradientUnits="userSpaceOnUse"><stop offset="0" stop-color="#fc8fa1"/><stop offset="0.05" stop-color="#eb8596"/><stop offset="0.25" stop-color="#a45d69"/><stop offset="0.45" stop-color="#6a3c44"/><stop offset="0.62" stop-color="#3c2226"/><stop offset="0.78" stop-color="#1b0f11"/><stop offset="0.91" stop-color="#070405"/><stop offset="1"/></linearGradient><linearGradient id="Gradiente_sem_nome_75" x1="74.41" y1="194.93" x2="74.41" y2="230.91" gradientUnits="userSpaceOnUse"><stop offset="0" stop-color="#fca0a2"/><stop offset="0.21" stop-color="#b67475"/><stop offset="0.42" stop-color="#764b4c"/><stop offset="0.61" stop-color="#432b2b"/><stop offset="0.78" stop-color="#1f1314"/><stop offset="0.91" stop-color="#080505"/><stop offset="1"/></linearGradient><linearGradient id="Gradiente_sem_nome_74" x1="74.41" y1="194.98" x2="74.41" y2="230.31" gradientUnits="userSpaceOnUse"><stop offset="0" stop-color="#fdb1a3"/><stop offset="0.14" stop-color="#cf9185"/><stop offset="0.38" stop-color="#865e56"/><stop offset="0.59" stop-color="#4c3531"/><stop offset="0.77" stop-color="#231816"/><stop offset="0.91" stop-color="#090706"/><stop offset="1"/></linearGradient><linearGradient id="Gradiente_sem_nome_73" x1="74.41" y1="195.03" x2="74.41" y2="229.72" gradientUnits="userSpaceOnUse"><stop offset="0" stop-color="#fec2a5"/><stop offset="0.05" stop-color="#efb69b"/><stop offset="0.32" stop-color="#9b7665"/><stop offset="0.56" stop-color="#584439"/><stop offset="0.76" stop-color="#291f1a"/><stop offset="0.91" stop-color="#0b0807"/><stop offset="1"/></linearGradient><linearGradient id="Gradiente_sem_nome_72" x1="74.41" y1="195.08" x2="74.41" y2="229.13" gradientUnits="userSpaceOnUse"><stop offset="0" stop-color="#fed3a6"/><stop offset="0.23" stop-color="#b79877"/><stop offset="0.51" stop-color="#695745"/><stop offset="0.74" stop-color="#302820"/><stop offset="0.91" stop-color="#0d0b09"/><stop offset="1"/></linearGradient><linearGradient id="linear-gradient-44" x1="74.41" y1="195.13" x2="74.41" y2="228.54" gradientUnits="userSpaceOnUse"><stop offset="0" stop-color="#ffe4a7"/><stop offset="0.1" stop-color="#e1ca94"/><stop offset="0.43" stop-color="#827455"/><stop offset="0.71" stop-color="#3c3627"/><stop offset="0.9" stop-color="#110f0b"/><stop offset="1"/></linearGradient><linearGradient id="linear-gradient-45" x1="64.05" y1="187.75" x2="84.63" y2="187.75" gradientUnits="userSpaceOnUse"><stop offset="0.02" stop-color="#45108a"/><stop offset="0.29" stop-color="#3d065f"/><stop offset="1" stop-color="#12054e"/><stop offset="1" stop-color="#10054d"/></linearGradient><linearGradient id="linear-gradient-46" x1="49.67" y1="171.82" x2="98.83" y2="171.82" gradientUnits="userSpaceOnUse"><stop offset="0" stop-color="#5c1ccc"/><stop offset="0.03" stop-color="#6323d0"/><stop offset="0.07" stop-color="#7538da"/><stop offset="0.12" stop-color="#9259ea"/><stop offset="0.14" stop-color="#a56ef4"/><stop offset="0.23" stop-color="#c994ff"/><stop offset="0.28" stop-color="#ae7af0"/><stop offset="0.38" stop-color="#7945d1"/><stop offset="0.54" stop-color="#4916a1"/><stop offset="0.62" stop-color="#4b17a4"/><stop offset="0.69" stop-color="#521aaf"/><stop offset="0.76" stop-color="#5d1ec1"/><stop offset="0.82" stop-color="#6b24d6"/><stop offset="0.94" stop-color="#5b1dbd"/><stop offset="1" stop-color="#531ab0"/></linearGradient><linearGradient id="linear-gradient-47" x1="35.09" y1="95.29" x2="113.23" y2="95.29" gradientUnits="userSpaceOnUse"><stop offset="0.01" stop-color="#c1a1d5"/><stop offset="0.04" stop-color="#c8abda"/><stop offset="0.1" stop-color="#dac6e6"/><stop offset="0.18" stop-color="#f7f2f9"/><stop offset="0.2" stop-color="#fff"/><stop offset="0.23" stop-color="#f9f5fb"/><stop offset="0.29" stop-color="#e9dbf2"/><stop offset="0.36" stop-color="#d1b4e3"/><stop offset="0.43" stop-color="#b395d6"/><stop offset="0.49" stop-color="#9c7dcb"/><stop offset="0.56" stop-color="#8e6ec5"/><stop offset="0.61" stop-color="#8969c3"/><stop offset="0.76" stop-color="#9471c6"/><stop offset="1" stop-color="#b086cc"/></linearGradient><linearGradient id="linear-gradient-48" x1="59.43" y1="29.95" x2="100.63" y2="46.63" gradientUnits="userSpaceOnUse"><stop offset="0" stop-color="#5c1ccc"/><stop offset="0.04" stop-color="#6323d0"/><stop offset="0.09" stop-color="#7538da"/><stop offset="0.16" stop-color="#9259ea"/><stop offset="0.19" stop-color="#a56ef4"/><stop offset="0.34" stop-color="#7945d1"/><stop offset="0.44" stop-color="#6d37c7"/><stop offset="0.6" stop-color="#5e27ba"/><stop offset="0.77" stop-color="#561db2"/><stop offset="1" stop-color="#531ab0"/></linearGradient><linearGradient id="linear-gradient-49" x1="92.49" y1="27.82" x2="39.29" y2="53.87" xlink:href="#linear-gradient-48"/><radialGradient id="radial-gradient" cx="74.41" cy="-2956.03" r="55.45" gradientTransform="translate(0 4824.93) scale(1 1.6)" gradientUnits="userSpaceOnUse"><stop offset="0.53" stop-color="#fff"/><stop offset="0.6" stop-color="#fbfafd"/><stop offset="0.68" stop-color="#efecf6"/><stop offset="0.76" stop-color="#dcd5ea"/><stop offset="0.85" stop-color="#c0b4da"/><stop offset="0.95" stop-color="#9e8bc5"/><stop offset="1" stop-color="#8770b8"/></radialGradient><radialGradient id="radial-gradient-2" cx="19709.9" cy="10282" r="66.31" gradientTransform="matrix(-0.22, 0.06, -0.24, -0.97, 6940.97, 8979.71)" gradientUnits="userSpaceOnUse"><stop offset="0" stop-color="#972a74"/><stop offset="0.02" stop-color="#8c276c"/><stop offset="0.11" stop-color="#671d4f"/><stop offset="0.21" stop-color="#471437"/><stop offset="0.32" stop-color="#2d0d23"/><stop offset="0.43" stop-color="#190713"/><stop offset="0.57" stop-color="#0b0308"/><stop offset="0.73" stop-color="#020102"/><stop offset="1"/></radialGradient><linearGradient id="linear-gradient-50" x1="45.51" y1="93.21" x2="66.75" y2="130" xlink:href="#linear-gradient-46"/><linearGradient id="linear-gradient-51" x1="36.84" y1="114.14" x2="66.46" y2="114.14" gradientTransform="translate(64.67 -10.46) rotate(30.31)" gradientUnits="userSpaceOnUse"><stop offset="0.04" stop-color="#a56ef4"/><stop offset="0.36" stop-color="#c994ff"/><stop offset="0.54" stop-color="#b379f5"/><stop offset="0.91" stop-color="#7935dc"/><stop offset="1" stop-color="#6b24d6"/></linearGradient><linearGradient id="New_Gradient_Swatch_copy_7" x1="59.84" y1="128.33" x2="43" y2="99.16" gradientTransform="translate(64.67 -10.46) rotate(30.31)" gradientUnits="userSpaceOnUse"><stop offset="0.04" stop-color="#138bbd"/><stop offset="0.23" stop-color="#169ac7"/><stop offset="0.59" stop-color="#1fc3df"/><stop offset="1" stop-color="#2af6ff"/></linearGradient><linearGradient id="White_Black_1" x1="39.99" y1="96.82" x2="55.52" y2="116.32" gradientUnits="userSpaceOnUse"><stop offset="0" stop-color="#fff"/><stop offset="1"/></linearGradient><linearGradient id="linear-gradient-52" x1="56.66" y1="130.68" x2="39.9" y2="101.66" gradientUnits="userSpaceOnUse"><stop offset="0" stop-color="#5c1ccc"/><stop offset="0.23" stop-color="#ba85ff"/><stop offset="0.38" stop-color="#7945d1"/><stop offset="0.54" stop-color="#4916a1"/><stop offset="0.61" stop-color="#4b17a4"/><stop offset="0.68" stop-color="#521aaf"/><stop offset="0.74" stop-color="#5d1ec1"/><stop offset="0.79" stop-color="#6b24d6"/><stop offset="0.93" stop-color="#5b1dbd"/><stop offset="1" stop-color="#531ab0"/></linearGradient><radialGradient id="Radial_Gradient_1" cx="54.56" cy="113.73" r="15.9" xlink:href="#White_Black_1"/><linearGradient id="linear-gradient-53" x1="32.99" y1="197.23" x2="53.38" y2="134.84" gradientUnits="userSpaceOnUse"><stop offset="0.2" stop-color="#7734dc"/><stop offset="0.39" stop-color="#8c4fe7"/><stop offset="0.59" stop-color="#a56ef4"/><stop offset="0.67" stop-color="#ba8aff"/><stop offset="0.8" stop-color="#a067f1"/><stop offset="1" stop-color="#9155ea"/></linearGradient><linearGradient id="New_Gradient_Swatch_copy_13-3" x1="32.5" y1="176.1" x2="102.48" y2="155.14" xlink:href="#New_Gradient_Swatch_copy_13"/><radialGradient id="Radial_Gradient_1-2" cx="-460.19" cy="-452.54" r="26.22" gradientTransform="translate(464.68 569.42) scale(0.89)" xlink:href="#White_Black_1"/><linearGradient id="linear-gradient-54" x1="109.54" y1="177.49" x2="98.43" y2="144.6" gradientUnits="userSpaceOnUse"><stop offset="0.04" stop-color="#6b24d6"/><stop offset="0.19" stop-color="#7733dc"/><stop offset="0.2" stop-color="#7734dc"/><stop offset="0.39" stop-color="#8c4fe7"/><stop offset="0.59" stop-color="#a56ef4"/><stop offset="0.67" stop-color="#ba8aff"/><stop offset="0.8" stop-color="#a067f1"/><stop offset="1" stop-color="#9155ea"/></linearGradient><linearGradient id="New_Gradient_Swatch_copy_13-4" x1="-95.95" y1="184.98" x2="13.29" y2="160.49" gradientTransform="matrix(-1, 0, 0, 1, 63.46, 0)" xlink:href="#New_Gradient_Swatch_copy_13"/><radialGradient id="Radial_Gradient_1-3" cx="95.78" cy="163.89" r="23.32" xlink:href="#White_Black_1"/></defs><g class="cls-1"><g id="Layer_1" data-name="Layer 1"><path class="cls-2" d="M120.66,244.42c-.6,0-1.19,0-1.77.08a6.93,6.93,0,0,0,.16-1.37c0-5.61-7.31-10.17-16.33-10.17a22.15,22.15,0,0,0-11.61,3c-2.89-4-9.31-6.76-16.78-6.76-6.51,0-12.21,2.11-15.49,5.29a19.92,19.92,0,0,0-10.56-2.77c-7.41,0-13.53,3.4-14.6,7.83-.68-.06-1.37-.1-2.08-.1-8.51,0-15.41,4.3-15.41,9.59s6.9,9.6,15.41,9.6c7.95,0,14.48-3.74,15.32-8.55.45,0,.9,0,1.36,0a19.71,19.71,0,0,0,10.88-3c3.31,3,8.87,5,15.17,5,5.66,0,10.72-1.6,14.09-4.1,2.79,3.13,8.14,5.25,14.3,5.25a25.54,25.54,0,0,0,4.71-.43c.18,4.46,6,8,13.23,8s13.24-3.69,13.24-8.25S128,244.42,120.66,244.42Z"/><path class="cls-3" d="M32.25,239.44c.65,0,1.31,0,2,0,.89-3.27,4.76-6,9.9-6.95a23,23,0,0,1,4.46-.38,21.29,21.29,0,0,1,6.58,1.09,20.13,20.13,0,0,1,3.68,1.65,24.88,24.88,0,0,1,3.26-2.28,24.54,24.54,0,0,1,12.23-3,23.71,23.71,0,0,1,13.12,3.57,18.72,18.72,0,0,1,3.66,3.18c.8-.44,1.67-.87,2.59-1.27a23.06,23.06,0,0,1,9-1.75c7,0,12.86,2.81,15,6.51h0a3,3,0,0,1,.15.31,8,8,0,0,1,.76,3.13,6.58,6.58,0,0,1-.12,1.33c.55,0,1.11,0,1.68,0a28.85,28.85,0,0,1,4.87.7l.43.11c.51.12,1,.27,1.45.42,4,1.35,6.54,3.92,6.54,6.69,0,2.44-2,4.8-5.32,6.17a19.49,19.49,0,0,1-8.18,1.33,20.84,20.84,0,0,1-4.14-.77,28.49,28.49,0,0,1-3.27-1.06c-.29-.11-.58-.23-.86-.36a11.21,11.21,0,0,1-3-1.95,6.13,6.13,0,0,1-2-3.63,25.14,25.14,0,0,1-4.69.22c-.59,0-1.16-.08-1.72-.15-1.44-.19-2.86-.45-4.21-.75-1.08-.24-2.12-.51-3.07-.82a14.46,14.46,0,0,1-5.3-3,19,19,0,0,1-4.32,2.16,26.37,26.37,0,0,1-9.85,1.39c-.69,0-1.35-.09-2-.17-1.25-.16-2.49-.36-3.68-.58-1-.19-2-.39-2.92-.62a18.45,18.45,0,0,1-6.6-3.12l-.49.29q-.43.24-.9.45l-.25.11a30.39,30.39,0,0,1-6.64,2.14,23.34,23.34,0,0,1-2.39.29c-.45,0-.9,0-1.35,0a8.72,8.72,0,0,1-4.68,5.36,22.32,22.32,0,0,1-10.85,2.17c-7.73-.21-13.46-4.29-13.08-9.13a6.43,6.43,0,0,1,1.06-3.09,8.31,8.31,0,0,1,.52-.69C21.64,241.8,26.65,239.68,32.25,239.44Z"/><path class="cls-4" d="M32.9,239.41c.6-.06,1.21-.11,1.86-.13.94-3.08,4.72-5.66,9.78-6.53a21.93,21.93,0,0,1,4.33-.31,20.46,20.46,0,0,1,6.38,1.14,27.26,27.26,0,0,1,3.59,1.57c1-.71,2.1-1.46,3.3-2.19a23.64,23.64,0,0,1,12.19-3.09c5.39,0,10.06,1.49,13.07,3.67a32.1,32.1,0,0,1,3.71,3.09c.81-.41,1.69-.82,2.61-1.23a22.12,22.12,0,0,1,9-1.79c7,0,12.68,2.85,14.57,6.34h0a1.81,1.81,0,0,1,.13.31,9.85,9.85,0,0,1,.69,3.07,9.13,9.13,0,0,1-.07,1.29c.51,0,1,.07,1.58.13,1.62.2,3.25.5,4.78.82l.43.09c.51.11,1,.24,1.44.38,4.09,1.24,6.68,3.77,6.68,6.32,0,2.26-2.1,4.62-5.59,5.85a19.08,19.08,0,0,1-8.16.9,25.3,25.3,0,0,1-3.92-1.08c-1.13-.35-2.24-.71-3.27-1.07l-.87-.31a11.83,11.83,0,0,1-3.1-1.73,6.17,6.17,0,0,1-2.29-3.31,24.29,24.29,0,0,1-4.67,0c-.59-.06-1.15-.16-1.69-.26l-4.17-.85c-1.09-.22-2.13-.41-3.08-.63a15.14,15.14,0,0,1-5.37-2.44,18.6,18.6,0,0,1-4.39,2,25.71,25.71,0,0,1-9.86,1,19.87,19.87,0,0,1-2-.28c-1.23-.23-2.47-.46-3.67-.65L64,249.05a18.13,18.13,0,0,1-6.67-2.59l-.51.26c-.3.14-.6.28-.92.4l-.25.1c-2,.79-4.3,1.74-6.48,2.35a14.79,14.79,0,0,1-2.31.45c-.44,0-.88.07-1.33.1a8.74,8.74,0,0,1-5,5,23.17,23.17,0,0,1-10.78,1.51c-7-.41-11.52-4.23-10.76-8.65a6.33,6.33,0,0,1,1.12-2.77c.16-.21.33-.42.51-.62C23.07,241.92,27.8,239.88,32.9,239.41Z"/><path class="cls-5" d="M33.55,239.38c.54-.09,1.12-.18,1.74-.25,1-2.87,4.7-5.32,9.67-6.09a20.82,20.82,0,0,1,4.21-.25,19.39,19.39,0,0,1,6.17,1.2c1.25.48,2.44,1,3.5,1.49,1-.64,2.16-1.36,3.34-2.12a22.77,22.77,0,0,1,12.15-3.17c5.49,0,10.17,1.58,13,3.78,1.37,1.06,2.68,2.09,3.77,3,.83-.36,1.72-.75,2.63-1.18a21.43,21.43,0,0,1,9-1.84c7,0,12.51,2.89,14.18,6.19h0a1.44,1.44,0,0,1,.12.3,13.33,13.33,0,0,1,.62,3c0,.43,0,.85,0,1.26.47.07,1,.14,1.49.24,1.55.3,3.15.64,4.68.92l.43.08c.51.09,1,.21,1.42.33,4.23,1.13,6.84,3.63,6.84,6,0,2.07-2.17,4.44-5.86,5.54a18.33,18.33,0,0,1-8.15.46,37.71,37.71,0,0,1-3.7-1.39c-1.11-.39-2.22-.75-3.27-1.08l-.87-.27a12.13,12.13,0,0,1-3.18-1.49,6.37,6.37,0,0,1-2.54-3,22.48,22.48,0,0,1-4.66-.18,14.72,14.72,0,0,1-1.64-.36c-1.36-.37-2.78-.71-4.15-1-1.08-.19-2.13-.32-3.08-.45A15.4,15.4,0,0,1,86,247.15,19.47,19.47,0,0,1,81.49,249a25.16,25.16,0,0,1-9.88.63,16.25,16.25,0,0,1-1.94-.38c-1.2-.3-2.44-.55-3.65-.73-1-.15-2-.24-2.92-.32a17.89,17.89,0,0,1-6.74-2.08l-.52.23c-.31.13-.62.25-.94.36l-.25.09c-2.09.7-4.33,1.78-6.34,2.57a12.66,12.66,0,0,1-2.22.61c-.43.07-.87.12-1.32.16a8.81,8.81,0,0,1-5.23,4.61c-3.68,1.4-7.61,1.17-10.72.86-6.17-.61-9.59-4.13-8.43-8.18A6.49,6.49,0,0,1,21.57,245a6.42,6.42,0,0,1,.51-.54C24.51,242,29,240.09,33.55,239.38Z"/><path class="cls-6" d="M34.2,239.34c.48-.11,1-.24,1.63-.36,1-2.67,4.67-5,9.54-5.66a22.13,22.13,0,0,1,4.09-.19,18.61,18.61,0,0,1,6,1.27c1.2.48,2.36.95,3.41,1.4a36.51,36.51,0,0,0,3.37-2,22.07,22.07,0,0,1,12.12-3.25c5.6,0,10.28,1.68,13,3.88,1.33,1.1,2.67,2.1,3.83,2.88.84-.31,1.74-.69,2.65-1.13a20.75,20.75,0,0,1,9-1.89c7,0,12.34,2.93,13.8,6h0a1,1,0,0,1,.1.3,20.19,20.19,0,0,1,.54,2.93,10,10,0,0,1,0,1.22l1.4.35c1.48.39,3.06.78,4.58,1l.43.07c.52.07,1,.17,1.42.27,4.36,1,7,3.48,7,5.6,0,1.88-2.23,4.26-6.14,5.22a23.56,23.56,0,0,1-8.13,0,30.67,30.67,0,0,0-3.48-1.69,27.76,27.76,0,0,0-3.27-1.08c-.3-.09-.59-.16-.88-.23a13.33,13.33,0,0,1-3.25-1.26,6.86,6.86,0,0,1-2.79-2.7,21.75,21.75,0,0,1-4.64-.39,12.84,12.84,0,0,1-1.61-.46,24.54,24.54,0,0,0-4.11-1.05,29.75,29.75,0,0,0-3.08-.26,15.64,15.64,0,0,1-5.51-1.33,19.58,19.58,0,0,1-4.53,1.67,24.58,24.58,0,0,1-9.89.25,15.22,15.22,0,0,1-1.91-.49,21.4,21.4,0,0,0-3.63-.81,24.9,24.9,0,0,0-2.92-.17,17.59,17.59,0,0,1-6.82-1.55l-.53.2c-.31.11-.62.22-1,.31l-.26.07a35.14,35.14,0,0,0-6.19,2.79,9.6,9.6,0,0,1-2.14.77,12.54,12.54,0,0,1-1.3.23,9,9,0,0,1-5.51,4.24c-4,1.26-7.91.62-10.65.2-5.38-.81-8.36-4.32-6.09-7.7A4.52,4.52,0,0,1,23,244.72c.16-.16.32-.32.5-.48C25.94,242.16,30.13,240.29,34.2,239.34Z"/><path class="cls-7" d="M34.85,239.31c.43-.14.93-.31,1.52-.47,1.09-2.47,4.63-4.66,9.42-5.24a21.83,21.83,0,0,1,4-.12,18.1,18.1,0,0,1,5.76,1.32c1.15.5,2.29.94,3.32,1.32a19.76,19.76,0,0,0,3.41-2,21.3,21.3,0,0,1,12.08-3.33c5.7,0,10.38,1.77,12.9,4a22.71,22.71,0,0,0,3.88,2.77,17.69,17.69,0,0,0,2.66-1.08,20.19,20.19,0,0,1,9-1.94c7,0,12.16,3,13.42,5.89h0a.92.92,0,0,1,.07.29c.15.94.38,1.9.48,2.87,0,.4.06.8.08,1.18l1.3.46a24.4,24.4,0,0,0,4.49,1.13l.43.06c.52.06,1,.14,1.41.23,4.5.89,7.13,3.33,7.13,5.23,0,1.69-2.29,4.09-6.4,4.91a22,22,0,0,1-8.12-.42,15.81,15.81,0,0,0-3.27-2,16.35,16.35,0,0,0-3.25-1.09l-.9-.18a13.87,13.87,0,0,1-3.32-1,7.45,7.45,0,0,1-3-2.38,20.17,20.17,0,0,1-4.62-.6,10.59,10.59,0,0,1-1.57-.56A15.37,15.37,0,0,0,93,247.41a16.16,16.16,0,0,0-3.08-.09,16.05,16.05,0,0,1-5.57-.77,20.18,20.18,0,0,1-4.6,1.5,23.79,23.79,0,0,1-9.91-.12,14.12,14.12,0,0,1-1.87-.6,14.19,14.19,0,0,0-3.62-.88,15,15,0,0,0-2.92,0,17.12,17.12,0,0,1-6.89-1l-.54.18-1,.26-.27.06a19,19,0,0,0-6,3,7.9,7.9,0,0,1-2.06.93c-.4.12-.83.21-1.28.3A9.41,9.41,0,0,1,37.55,254c-4.31,1.12-8.22.07-10.58-.45-4.59-1-6.6-4.34-3.77-7.23a4.18,4.18,0,0,1,1.29-1.82c.16-.14.32-.28.49-.41A37.47,37.47,0,0,1,34.85,239.31Z"/><path class="cls-8" d="M35.5,239.28c.37-.17.84-.39,1.4-.59,1.15-2.27,4.61-4.33,9.3-4.81a21.51,21.51,0,0,1,3.85,0,16.81,16.81,0,0,1,5.56,1.38,26.71,26.71,0,0,0,3.23,1.23,13.46,13.46,0,0,0,3.45-1.87c2.49-1.86,6.71-3.41,12-3.41,5.81,0,10.48,1.86,12.84,4.08a14,14,0,0,0,3.94,2.67,12.18,12.18,0,0,0,2.68-1,19.61,19.61,0,0,1,8.93-2c7,0,12,3,13,5.74h0a.6.6,0,0,1,.06.28c.08.92.29,1.86.41,2.81,0,.39.08.77.12,1.14.38.19.78.37,1.21.57a16,16,0,0,0,4.4,1.24l.43,0c.52,0,1,.11,1.39.18,4.65.77,7.29,3.19,7.29,4.86s-2.36,3.92-6.68,4.61a19.46,19.46,0,0,1-8.1-.86,10.5,10.5,0,0,0-3-2.32,12.21,12.21,0,0,0-3.25-1.09c-.31-.06-.61-.1-.91-.14a15.09,15.09,0,0,1-3.4-.8,8.65,8.65,0,0,1-3.28-2.07,19.06,19.06,0,0,1-4.6-.81,9.63,9.63,0,0,1-1.54-.66,11.17,11.17,0,0,0-7.14-1.14,16.27,16.27,0,0,1-5.64-.23,20.36,20.36,0,0,1-4.66,1.35,23.22,23.22,0,0,1-9.93-.51,12.11,12.11,0,0,1-1.84-.7,11,11,0,0,0-3.59-1,11.21,11.21,0,0,0-2.92.14,16.84,16.84,0,0,1-7-.52l-.55.15q-.49.12-1,.21l-.27,0a13,13,0,0,0-5.89,3.22,6.31,6.31,0,0,1-2,1.09,10.57,10.57,0,0,1-1.27.37,10,10,0,0,1-6.06,3.5c-4.63,1-8.51-.48-10.52-1.11-3.77-1.19-4.84-4.35-1.44-6.76a4.08,4.08,0,0,1,1.35-1.5c.16-.11.31-.23.48-.34A84,84,0,0,1,35.5,239.28Z"/><path class="cls-9" d="M36.15,239.25a10.64,10.64,0,0,1,1.29-.71c1.2-2.07,4.58-4,9.18-4.38a20.21,20.21,0,0,1,3.73,0,16.1,16.1,0,0,1,5.34,1.43,15.88,15.88,0,0,0,3.15,1.15A9.8,9.8,0,0,0,62.32,235c2.38-1.86,6.58-3.49,12-3.49,5.91,0,10.58,2,12.78,4.19a10.53,10.53,0,0,0,4,2.57,9.83,9.83,0,0,0,2.7-1,19.06,19.06,0,0,1,8.91-2c7,0,11.82,3.05,12.65,5.57h0a1,1,0,0,1,0,.28,21.58,21.58,0,0,0,.34,2.74c0,.38.11.75.17,1.11a12.75,12.75,0,0,0,1.12.67,11.16,11.16,0,0,0,4.3,1.35,3,3,0,0,0,.42,0c.53,0,1,.08,1.39.14,4.79.63,7.43,3,7.43,4.49s-2.42,3.74-6.94,4.29a16.71,16.71,0,0,1-8.08-1.29,7.91,7.91,0,0,0-2.84-2.63,9.48,9.48,0,0,0-3.25-1.1,7.34,7.34,0,0,0-.92-.09,16.13,16.13,0,0,1-3.47-.58,9.88,9.88,0,0,1-3.53-1.75,17.87,17.87,0,0,1-4.58-1,9.23,9.23,0,0,1-1.51-.75,8.86,8.86,0,0,0-7.11-1.06,16.33,16.33,0,0,1-5.7.32,21.23,21.23,0,0,1-4.74,1.19,22.55,22.55,0,0,1-9.94-.89,12.53,12.53,0,0,1-1.81-.81,8.75,8.75,0,0,0-6.49-.75,16.11,16.11,0,0,1-7.05,0,5.05,5.05,0,0,1-.56.12c-.33.07-.66.12-1,.16l-.28,0a9.8,9.8,0,0,0-5.73,3.45,5.41,5.41,0,0,1-1.89,1.25c-.38.16-.8.3-1.25.44a10.84,10.84,0,0,1-6.34,3.12,17.74,17.74,0,0,1-10.46-1.77c-2.95-1.34-3.07-4.35.89-6.28A4.18,4.18,0,0,1,27.41,244l.47-.26C30.27,242.52,33.63,240.85,36.15,239.25Z"/><path class="cls-10" d="M36.8,239.22A6.2,6.2,0,0,1,38,238.4c1.25-1.87,4.56-3.67,9.07-4a19.67,19.67,0,0,1,3.6.09A15.33,15.33,0,0,1,55.78,236a11.41,11.41,0,0,0,3.06,1.07,8,8,0,0,0,3.52-1.72c2.25-1.86,6.43-3.57,12-3.57,6,0,10.68,2.07,12.73,4.3a8.28,8.28,0,0,0,4,2.46,8.24,8.24,0,0,0,2.72-.94,18.48,18.48,0,0,1,8.89-2.08c6.94,0,11.64,3.09,12.27,5.42h0a.65.65,0,0,1,0,.28,12.82,12.82,0,0,0,.28,2.67c.06.37.13.72.22,1.07a8.53,8.53,0,0,0,1,.78,8.85,8.85,0,0,0,4.2,1.46l.43,0c.53,0,1,0,1.38.08,4.93.49,7.58,2.89,7.58,4.13s-2.48,3.56-7.22,4a14.08,14.08,0,0,1-8.06-1.73,6.53,6.53,0,0,0-2.62-2.94,7.87,7.87,0,0,0-3.25-1.11c-.31,0-.62-.05-.93-.05a17.21,17.21,0,0,1-3.54-.34,11.7,11.7,0,0,1-3.78-1.44,16.68,16.68,0,0,1-4.56-1.23,7.7,7.7,0,0,1-1.47-.85,7.66,7.66,0,0,0-4-1.45,7.4,7.4,0,0,0-3.09.47,16.27,16.27,0,0,1-5.78.88,21.4,21.4,0,0,1-4.8,1,21.92,21.92,0,0,1-10-1.27,11.38,11.38,0,0,1-1.78-.9,7.45,7.45,0,0,0-3.56-1.12,7.33,7.33,0,0,0-2.92.44,15.69,15.69,0,0,1-7.12.52l-.57.09c-.34.05-.68.09-1,.11l-.29,0a7.86,7.86,0,0,0-5.58,3.66,4.56,4.56,0,0,1-1.8,1.41,10.3,10.3,0,0,1-1.24.51,11.72,11.72,0,0,1-6.61,2.75,15.63,15.63,0,0,1-10.4-2.42c-2.12-1.45-1.31-4.36,3.22-5.81a4.63,4.63,0,0,1,1.47-.87l.46-.19A27.43,27.43,0,0,0,36.8,239.22Z"/><path class="cls-11" d="M37.45,239.19a4.3,4.3,0,0,1,1.06-.94c1.3-1.67,4.52-3.33,8.94-3.53a19.27,19.27,0,0,1,3.49.16,14.36,14.36,0,0,1,4.93,1.55,8.44,8.44,0,0,0,3,1,6.82,6.82,0,0,0,3.56-1.63c2.13-1.86,6.29-3.66,11.93-3.66,6.13,0,10.77,2.18,12.67,4.4a6.83,6.83,0,0,0,4.11,2.36,6.79,6.79,0,0,0,2.74-.89,18,18,0,0,1,8.87-2.13c6.92,0,11.47,3.13,11.89,5.27h0a.83.83,0,0,1,0,.27,9.21,9.21,0,0,0,.2,2.61c.08.35.16.7.27,1a7.18,7.18,0,0,0,5,2.45h.43c.53,0,1,0,1.37,0,5.07.34,7.73,2.75,7.73,3.77s-2.55,3.39-7.49,3.66-7.47-1.67-8.05-2.16a5.81,5.81,0,0,0-2.4-3.25,6.64,6.64,0,0,0-3.25-1.12,7.37,7.37,0,0,0-.94,0,18.88,18.88,0,0,1-3.61-.11,14.11,14.11,0,0,1-4-1.14,15.56,15.56,0,0,1-4.54-1.43,7.49,7.49,0,0,1-1.44-.95,6.6,6.6,0,0,0-4-1.55,6.4,6.4,0,0,0-3.09.66A16.18,16.18,0,0,1,81,245.34a22.12,22.12,0,0,1-4.87.86,21.31,21.31,0,0,1-10-1.65,10.85,10.85,0,0,1-1.75-1,6.46,6.46,0,0,0-6.46-.61,15,15,0,0,1-7.19,1l-.59.07c-.34,0-.69.05-1,.06l-.29,0A6.61,6.61,0,0,0,43.41,248a4.17,4.17,0,0,1-1.72,1.57c-.36.2-.77.39-1.21.58a13,13,0,0,1-6.89,2.37c-5.6.41-9.36-2-10.33-3.07-1.32-1.48.67-3.56,5.54-5.34a11.23,11.23,0,0,1,1.53-.55l.46-.13A13.2,13.2,0,0,0,37.45,239.19Z"/><path class="cls-12" d="M38.1,239.16a3.13,3.13,0,0,1,.95-1.06c1.35-1.46,4.49-3,8.82-3.1a18.6,18.6,0,0,1,3.36.23,13.6,13.6,0,0,1,4.73,1.6,6.42,6.42,0,0,0,2.88.9,5.88,5.88,0,0,0,3.59-1.55c2-1.85,6.16-3.74,11.9-3.74,6.23,0,10.86,2.28,12.61,4.51a5.92,5.92,0,0,0,4.17,2.25,5.71,5.71,0,0,0,2.75-.85,17.58,17.58,0,0,1,8.86-2.17c6.91,0,11.3,3.17,11.5,5.12h0a.65.65,0,0,1,0,.26,6.57,6.57,0,0,0,.13,2.54,6.48,6.48,0,0,0,.32,1,6,6,0,0,0,.83,1,6.1,6.1,0,0,0,4,1.67h.43c.52,0,1,0,1.35,0,5.22.17,7.88,2.6,7.88,3.4s-2.61,3.21-7.76,3.35-7.73-2.06-8-2.6a5.42,5.42,0,0,0-2.18-3.56,5.83,5.83,0,0,0-3.25-1.13,6.05,6.05,0,0,0-1,0,19.7,19.7,0,0,1-3.68.11,16.6,16.6,0,0,1-4.28-.82,14.86,14.86,0,0,1-4.52-1.63,7.61,7.61,0,0,1-1.41-1.06,5.78,5.78,0,0,0-3.92-1.64,5.69,5.69,0,0,0-3.1.83,16,16,0,0,1-5.91,2,22.55,22.55,0,0,1-4.94.69,20.7,20.7,0,0,1-10-2,11.6,11.6,0,0,1-1.72-1.12,5.77,5.77,0,0,0-6.44-.53,14.61,14.61,0,0,1-7.27,1.56l-.59,0c-.35,0-.7,0-1,0h-.3a5.8,5.8,0,0,0-5.28,4.1A3.82,3.82,0,0,1,41,249.5a9.51,9.51,0,0,1-1.2.65,14.4,14.4,0,0,1-7.17,2c-5.91.21-9.71-2.42-10.26-3.73s2.27-3.91,7.87-4.86c.44-.07.94-.18,1.59-.23l.45-.06A7.89,7.89,0,0,0,38.1,239.16Z"/><path class="cls-13" d="M120.66,254c-5.36,0-8-2.43-8-3a5.21,5.21,0,0,0-6.17-4.92,20.28,20.28,0,0,1-3.75.35c-5,0-8.85-1.76-10.4-3.51a5.23,5.23,0,0,0-7-.72c-2.59,1.92-6.7,3.07-11,3.07-4.73,0-9.2-1.39-11.68-3.63a5.19,5.19,0,0,0-6.41-.45,14.64,14.64,0,0,1-8,2.08c-.36,0-.71,0-1.06,0h-.31a5.22,5.22,0,0,0-5.13,4.32c-.25,1.48-4,4.23-10.18,4.23s-10.2-2.88-10.2-4.38,4-4.39,10.2-4.39c.48,0,1,0,1.65.08l.44,0a5.21,5.21,0,0,0,5.06-4c.32-1.34,3.88-3.84,9.53-3.84a15,15,0,0,1,7.77,2,5.21,5.21,0,0,0,6.42-.66c1.9-1.84,6-3.81,11.86-3.81,6.34,0,11,2.38,12.56,4.6a5.19,5.19,0,0,0,4.22,2.15,5.11,5.11,0,0,0,2.77-.8,17.08,17.08,0,0,1,8.84-2.22c6.9,0,11.12,3.22,11.12,5h0a1.51,1.51,0,0,1,0,.26,5.2,5.2,0,0,0,5.09,6.31h.42c.53-.05,1-.07,1.35-.07,5.35,0,8,2.46,8,3S126,254,120.66,254Z"/><path class="cls-14" d="M64.62,187.55c-12.16,38.55-14.07,53.66-33.81,65.51-41.3,24.79,82.79,29.22,95.78,18.94s-20.9-16.55-26.52-35.71c-9.57-32.7-16-49.44-16-49.44Z"/><path class="cls-15" d="M66.89,189.16c-9.73,37.86-11.25,52.7-27,64.33-33,24.35,66.24,28.7,76.63,18.6S99.75,255.84,95.26,237c-7.67-32.11-12.81-48.54-12.81-48.54Z"/><path class="cls-16" d="M142.5,266c0-6.33-8.24-11.46-18.4-11.46l-.73,0c0-.12,0-.24,0-.37,0-6.33-8.24-11.46-18.41-11.46-.58,0-1.16,0-1.73.06-.65-2.79-5.49-5-11.38-5-6.33,0-11.46,2.5-11.46,5.6,0,2.56,3.52,4.71,8.32,5.38a8.29,8.29,0,0,0-2.16,5.38c0,3.78,3,7.12,7.48,9.21a23.93,23.93,0,0,0-10.76,5.13,18.1,18.1,0,0,0-8.61-1.92A19.84,19.84,0,0,0,67.3,268c-3.17-6.13-12.39-10.56-23.29-10.56-.5,0-1,0-1.49,0a9.88,9.88,0,0,0-3.33-4.8c3.75-.93,6.32-2.82,6.32-5,0-3.09-5.13-5.6-11.46-5.6s-11.46,2.51-11.46,5.6a2.85,2.85,0,0,0,0,.41C13.3,248.6,6,253.49,6,259.44c0,3.93,3.17,7.38,8,9.44A3.41,3.41,0,0,0,13,271.21c0,2.39,3.06,4.42,7.36,5.23,2.52,6.1,10.94,10.72,21.26,11.36,2,1.68,5.68,2.82,9.93,2.82a22.75,22.75,0,0,0,3.27-.24c2.82,4.07,9.31,6.92,16.88,6.92,5.82,0,11-1.69,14.35-4.32a21.89,21.89,0,0,0,4.06.37c4.48,0,8.36-1.26,10.24-3.1.41,0,.81.05,1.22.05,10,0,15.92-4.09,19.16-7.64h.64c6.33,0,11.46-2.51,11.46-5.6a2.4,2.4,0,0,0-.05-.46C137.52,275.39,142.5,272.55,142.5,266Z"/><path class="cls-17" d="M22.62,248.14a4.87,4.87,0,0,1,2.4-3.21,15.14,15.14,0,0,1,2.53-1.4,19.92,19.92,0,0,1,6.5-1,21.76,21.76,0,0,1,3.62.29A11.56,11.56,0,0,1,42,244.68a5.68,5.68,0,0,1,2.64,3.77,3.26,3.26,0,0,1-.89,2.43,8.4,8.4,0,0,1-4.25,2.67l.17.12c.34.26.66.53,1,.81a9.36,9.36,0,0,1,2.43,3.46c.5,0,1,0,1.49,0A32.74,32.74,0,0,1,59,261.34a40.87,40.87,0,0,1,4.82,3,17.52,17.52,0,0,1,1.54,1.21,13.49,13.49,0,0,1,2.46,2.81c.46-.17.94-.33,1.44-.46a20.47,20.47,0,0,1,6-.63c.9,0,1.79.11,2.64.2a29.83,29.83,0,0,1,3.7.6,14.08,14.08,0,0,1,2.22.75,20.67,20.67,0,0,1,5.94-3.5c1.52-.61,3.13-1.18,4.76-1.68-.38-.22-.75-.45-1.12-.7a18.86,18.86,0,0,1-4.68-4.34,7.77,7.77,0,0,1-1.58-4.17,6.56,6.56,0,0,1,.16-1.88,7.17,7.17,0,0,1,.86-2,13.13,13.13,0,0,1,1-1.5,18.11,18.11,0,0,1-3.33-1.13,9.32,9.32,0,0,1-4.37-3.29,2.63,2.63,0,0,1-.36-1.12c.09-1.49,1.46-2.85,3.64-3.76a19,19,0,0,1,7.57-1.3,23.41,23.41,0,0,1,2.46.19c4.07.64,7.39,2.33,8.34,4.32a3,3,0,0,1,.15.38c.55,0,1.11-.05,1.67-.05h.5c9.68.15,17.35,5,17.45,10.91a2.17,2.17,0,0,1,0,.36c.23,0,.44,0,.67,0l.18,0c1.27.14,2.57.37,3.87.64s2.64.58,3.88.95c.22.06.49.13.7.2,5.87,1.78,9.84,5.54,9.84,9.69,0,6-4.53,8.84-9.34,10.09a2,2,0,0,1,0,.42,2.54,2.54,0,0,1-.29,1.1c-1.19,2.36-5.52,4.23-10.54,4.43h-.63a19.11,19.11,0,0,1-4.09,3.18c-.14.1-.33.19-.48.28-1.06.63-2.25,1.22-3.51,1.81a27.33,27.33,0,0,1-11.27,2.44c-.41,0-.82,0-1.23,0a8.9,8.9,0,0,1-2.22,1.34l-.38.16-.49.18-.13,0a28.18,28.18,0,0,1-3.54,1,20.8,20.8,0,0,1-3.58.38,25.27,25.27,0,0,1-2.78-.13c-.45-.05-.88-.12-1.31-.19-.4.26-.82.52-1.25.76l-.76.39c-.89.45-1.85.89-2.85,1.31a25.78,25.78,0,0,1-9.63,1.83l-1,0a23.16,23.16,0,0,1-12.11-3.48,20.76,20.76,0,0,1-3.53-3c-.15-.15-.28-.3-.42-.46a21,21,0,0,1-2.69.23h-.55A19.21,19.21,0,0,1,44.75,289a13,13,0,0,1-3.15-1.68c-7.6-.47-14.07-3.13-17.79-6.82a19.77,19.77,0,0,1-3.19-4c-.09-.17-.19-.34-.27-.51-.65-.13-1.26-.28-1.82-.45a13.53,13.53,0,0,1-2.37-1.22c-1.67-1.07-2.82-2.36-2.93-3.73a3,3,0,0,1,.83-2.17c-3.43-1.5-6-3.71-7-6.26a6.83,6.83,0,0,1-.51-2.83c.16-5.59,7.11-10.24,16.11-10.79A2.23,2.23,0,0,1,22.62,248.14Z"/><path class="cls-18" d="M22.65,248.65a5.88,5.88,0,0,1,2.54-3.08A19.55,19.55,0,0,1,27.58,244,19.15,19.15,0,0,1,34.05,243a21.58,21.58,0,0,1,3.63.3,8.87,8.87,0,0,1,3.52,2.08,7.63,7.63,0,0,1,2.55,3.91,3.1,3.1,0,0,1-.64,2.41,6.56,6.56,0,0,1-3.32,2.78l.17.11a10.69,10.69,0,0,1,1,.73,9.5,9.5,0,0,1,2.64,3.13c.49,0,1,0,1.49,0a30.34,30.34,0,0,1,14.28,3.79c1.68,1,3.34,2,4.81,2.95.56.36,1.09.7,1.58,1.05a13.87,13.87,0,0,1,2.61,2.45,13.79,13.79,0,0,1,1.45-.42,19.3,19.3,0,0,1,6-.44c.9.07,1.78.16,2.64.24,1.33.13,2.58.25,3.67.41a13.5,13.5,0,0,1,2.19.53,21.1,21.1,0,0,1,6-3.4c1.54-.58,3.12-1.22,4.65-1.82-.33-.25-.65-.5-1-.77a34,34,0,0,1-4.52-4.44,7.71,7.71,0,0,1-1.79-4,5.77,5.77,0,0,1,.07-1.86,6.69,6.69,0,0,1,.86-2c.32-.5.67-1,1-1.5a22.43,22.43,0,0,1-3-1.39,12.78,12.78,0,0,1-4.34-3.29,2.54,2.54,0,0,1-.45-1c.18-1.37,1.53-2.61,3.64-3.42A18.53,18.53,0,0,1,92.8,239a20.21,20.21,0,0,1,2.36.24c3.73.78,6.94,2.43,8,4.24.06.11.11.22.16.33.53,0,1.07-.05,1.61-.05h.48c9.42.14,16.81,4.84,17,10.37,0,.12,0,.23,0,.34l.61.06.16,0c1.14.28,2.36.62,3.63,1s2.61.67,3.87,1c.2.06.51.12.7.19,6.08,1.59,10.18,5.36,10.18,9.34,0,5.55-4.08,8.33-8.91,9.61a2.54,2.54,0,0,1,0,.39,2.51,2.51,0,0,1-.33,1c-1.26,2.19-5.34,4-9.87,4.44l-.63,0a16.77,16.77,0,0,1-4.25,3c-.12.09-.35.17-.49.25-1.09.59-2.31,1.16-3.54,1.8a26,26,0,0,1-11.26,2.76c-.41,0-.82,0-1.23,0a9.46,9.46,0,0,1-2.29,1.22l-.39.14-.5.16-.13,0c-1.1.33-2.31.72-3.55,1a17.25,17.25,0,0,1-3.59.48,21.78,21.78,0,0,1-2.8-.09q-.67-.07-1.32-.18a14.4,14.4,0,0,1-1.3.66l-.77.35-2.88,1.29a24.63,24.63,0,0,1-9.69,2h-1a22.11,22.11,0,0,1-12.16-3.6c-1.33-1-2.57-2-3.61-2.89l-.44-.4a21.08,21.08,0,0,1-2.68.21h-.55a18.47,18.47,0,0,1-6.64-1.17,18.76,18.76,0,0,1-3.15-1.65c-7.74-.48-14.19-3.25-17.68-7A34.72,34.72,0,0,1,20.69,276c-.11-.15-.21-.31-.31-.47a15.9,15.9,0,0,1-1.81-.46,16.76,16.76,0,0,1-2.12-1.38c-1.52-1.14-2.72-2.42-2.94-3.72a2.65,2.65,0,0,1,.62-2c-3.31-1.46-5.74-3.61-6.67-6a6.48,6.48,0,0,1-.41-2.7c.32-5.24,6.94-9.65,15.59-10.17A1.93,1.93,0,0,1,22.65,248.65Z"/><path class="cls-19" d="M22.68,249.16a7.56,7.56,0,0,1,2.67-2.95c.72-.57,1.48-1.14,2.26-1.67a18.43,18.43,0,0,1,6.44-1.09,20.34,20.34,0,0,1,3.63.32A7.57,7.57,0,0,1,40.41,246a11.89,11.89,0,0,1,2.46,4.06,3,3,0,0,1-.38,2.39c-.74,1.35-1.39,2.49-2.39,2.89l.17.1c.36.2.7.42,1,.64a10.16,10.16,0,0,1,2.84,2.82l1.49,0c5.77.3,10.76,1.91,14.11,4.17,1.6,1.08,3.27,2.11,4.78,2.94.58.32,1.13.6,1.63.89a14.1,14.1,0,0,1,2.75,2.08,12.45,12.45,0,0,1,1.46-.38,18.78,18.78,0,0,1,6-.26c.88.11,1.76.22,2.62.29,1.32.12,2.57.17,3.65.22a13,13,0,0,1,2.16.32,20.91,20.91,0,0,1,6-3.31,41.32,41.32,0,0,0,4.55-2l-.83-.83c-1.44-1.47-3-3.08-4.34-4.53a7.71,7.71,0,0,1-2-3.88,5,5,0,0,1,0-1.85,5.49,5.49,0,0,1,.86-2c.33-.51.67-1,1-1.51-.86-.46-1.74-1-2.67-1.64a21.42,21.42,0,0,1-4.33-3.3,2.54,2.54,0,0,1-.53-.94c.27-1.24,1.6-2.38,3.64-3.09a18.39,18.39,0,0,1,7.06-.88,18.85,18.85,0,0,1,2.26.3c3.4.92,6.49,2.52,7.66,4.15a1.46,1.46,0,0,1,.17.3c.52,0,1-.05,1.56-.06h.47c9.16.12,16.26,4.64,16.57,9.82,0,.11,0,.22,0,.33l.54.1.14.06c1,.41,2.15.87,3.39,1.3s2.59.75,3.85,1.07c.19.05.54.1.71.16,6.29,1.42,10.51,5.18,10.51,9,0,5.08-3.62,7.82-8.47,9.13a1.38,1.38,0,0,1,0,.35,2.1,2.1,0,0,1-.36.91c-1.34,2-5.16,3.87-9.21,4.46l-.63.07a15.23,15.23,0,0,1-4.39,2.75c-.11.08-.38.15-.51.22-1.12.55-2.37,1.11-3.58,1.79a24.76,24.76,0,0,1-11.23,3.08c-.42,0-.83,0-1.25,0a10.7,10.7,0,0,1-2.35,1.1l-.41.12-.5.14-.14,0c-1.13.3-2.33.72-3.56,1.09a16.05,16.05,0,0,1-3.59.57,20.48,20.48,0,0,1-2.82-.05c-.45,0-.9-.1-1.34-.16-.43.2-.87.39-1.33.56l-.79.3c-1,.36-1.94.79-2.92,1.26a23.52,23.52,0,0,1-9.73,2.11h-1c-5.18-.11-9.54-1.66-12.21-3.73-1.3-1-2.57-2-3.68-2.81l-.48-.35a22.92,22.92,0,0,1-2.66.21h-.55A17.29,17.29,0,0,1,44.79,288a33.64,33.64,0,0,1-3.14-1.6c-7.88-.49-14.33-3.38-17.57-7.08-1.19-1.35-2.34-2.7-3.33-3.86l-.34-.44a15.32,15.32,0,0,1-1.81-.47c-.62-.45-1.23-1-1.85-1.54-1.38-1.21-2.62-2.47-3-3.72a2.32,2.32,0,0,1,.41-1.87C11,266,8.71,263.89,7.88,261.59a5.68,5.68,0,0,1-.3-2.57c.46-4.88,6.75-9,15.07-9.56A1.53,1.53,0,0,1,22.68,249.16Z"/><path class="cls-20" d="M22.72,249.67a10.66,10.66,0,0,1,2.8-2.82c.71-.59,1.42-1.22,2.11-1.8a17.81,17.81,0,0,1,6.42-1.12,20.21,20.21,0,0,1,3.64.32,9,9,0,0,1,1.94,2.46A26.49,26.49,0,0,1,42,250.9a3,3,0,0,1-.12,2.37c-.62,1.47-.89,2.66-1.47,3l.17.08c.37.18.73.37,1.07.56a11.17,11.17,0,0,1,3,2.51l1.49.06C52,259.9,57,261.68,60.11,264A27,27,0,0,0,64.87,267c.59.27,1.15.51,1.67.73a14.09,14.09,0,0,1,2.89,1.71c.47-.13,1-.25,1.47-.34a18.06,18.06,0,0,1,6-.07,26.27,26.27,0,0,0,2.61.34,29.63,29.63,0,0,0,3.63,0,13.54,13.54,0,0,1,2.13.09,21,21,0,0,1,6.11-3.2,23.31,23.31,0,0,0,4.44-2.12l-.68-.9A48.25,48.25,0,0,0,91,258.61a7.81,7.81,0,0,1-2.22-3.73,4.44,4.44,0,0,1-.1-1.84,5,5,0,0,1,.87-2c.34-.5.67-1,1-1.52-.69-.54-1.46-1.23-2.34-1.89-1.6-1.2-3.25-2.32-4.3-3.3a2.68,2.68,0,0,1-.62-.85c.36-1.11,1.68-2.14,3.64-2.75a18.11,18.11,0,0,1,6.81-.67,19.73,19.73,0,0,1,2.16.34c3.07,1.07,6,2.62,7.31,4.07a2.48,2.48,0,0,1,.19.26c.49,0,1-.05,1.5-.05h.45c8.91.11,15.73,4.44,16.13,9.28,0,.11,0,.21,0,.31l.49.14.12.08a20.25,20.25,0,0,0,3.14,1.63,26,26,0,0,0,3.84,1.14c.17,0,.56.08.71.13,6.49,1.25,10.85,5,10.85,8.66,0,4.6-3.17,7.31-8,8.65a1.92,1.92,0,0,1,0,.32,2.37,2.37,0,0,1-.39.82c-1.44,1.86-5,3.68-8.55,4.46l-.63.11a14.43,14.43,0,0,1-4.54,2.53c-.1.07-.41.13-.53.19a30.86,30.86,0,0,0-3.61,1.78,23.79,23.79,0,0,1-11.22,3.4l-1.26,0a12.18,12.18,0,0,1-2.42,1l-.41.1-.51.12-.14,0a33.29,33.29,0,0,0-3.57,1.13,14.57,14.57,0,0,1-3.6.68,20.76,20.76,0,0,1-2.84,0q-.69,0-1.35-.15c-.45.17-.91.33-1.37.47-.27.07-.54.16-.82.25a20.41,20.41,0,0,0-3,1.24A22.66,22.66,0,0,1,72,295.4c-.34,0-.68,0-1,0-5.34-.1-9.74-1.75-12.26-3.85A32.84,32.84,0,0,0,55,288.81l-.51-.3a22.57,22.57,0,0,1-2.64.21h-.54a16.37,16.37,0,0,1-6.51-1.26c-1.14-.54-2.21-1.09-3.13-1.55-8-.5-14.46-3.52-17.47-7.22a50.33,50.33,0,0,0-3.39-3.77c-.13-.13-.26-.26-.37-.39a15,15,0,0,1-1.81-.49c-.51-.5-1-1.1-1.6-1.69a13.47,13.47,0,0,1-3-3.73,2.06,2.06,0,0,1,.18-1.71c-3-1.41-5.24-3.41-6-5.59a5.54,5.54,0,0,1-.19-2.44c.61-4.51,6.57-8.45,14.56-8.95A.88.88,0,0,1,22.72,249.67Z"/><path class="cls-21" d="M22.75,250.18a19.79,19.79,0,0,1,2.93-2.69c.71-.62,1.37-1.29,2-1.94a17,17,0,0,1,6.39-1.15,19.82,19.82,0,0,1,3.64.33c.28.42.57,1.43,1.15,2.66.68,1.43,1.6,3,2.27,4.33a3,3,0,0,1,.14,2.35c-.49,1.58-.38,2.82-.55,3.12l.18.07c.38.15.75.31,1.1.48a12,12,0,0,1,3.23,2.18c.5,0,1,.05,1.49.09,6,.51,10.9,2.47,13.77,4.94a17.24,17.24,0,0,0,4.75,2.91,18,18,0,0,0,1.72.56,14.71,14.71,0,0,1,3,1.35c.47-.12,1-.23,1.48-.31a17.47,17.47,0,0,1,6,.13,17.92,17.92,0,0,0,2.6.38,16.7,16.7,0,0,0,3.61-.16,13.74,13.74,0,0,1,2.11-.13,21.24,21.24,0,0,1,6.15-3.1,14.8,14.8,0,0,0,4.34-2.27c-.16-.31-.33-.63-.53-1a21.39,21.39,0,0,0-4-4.72A7.91,7.91,0,0,1,89.28,255a4.16,4.16,0,0,1-.19-1.83,4.87,4.87,0,0,1,.87-2c.35-.49.68-1,1-1.52a18.9,18.9,0,0,0-2-2.15c-1.46-1.29-3.12-2.41-4.28-3.3a3,3,0,0,1-.71-.76c.45-1,1.75-1.9,3.64-2.41a17.71,17.71,0,0,1,6.56-.47,15.22,15.22,0,0,1,2,.4,29.77,29.77,0,0,1,7,4c.08.07.14.15.21.22.47,0,.95-.05,1.44-.05h.43c8.66.1,15.2,4.25,15.69,8.74,0,.1,0,.2,0,.3l.43.18a.94.94,0,0,1,.1.1,12.16,12.16,0,0,0,2.91,2,16.17,16.17,0,0,0,3.82,1.2c.15,0,.58.07.71.12,6.7,1.06,11.19,4.83,11.19,8.31,0,4.12-2.72,6.8-7.61,8.17,0,.09,0,.18-.07.28a2.3,2.3,0,0,1-.43.73c-1.53,1.7-4.8,3.5-7.88,4.48l-.63.13a13.6,13.6,0,0,1-4.7,2.32c-.08.05-.43.11-.54.16a19.43,19.43,0,0,0-3.65,1.77,22.62,22.62,0,0,1-11.2,3.71c-.42,0-.84,0-1.27,0a12.17,12.17,0,0,1-2.48.86l-.42.09-.52.1-.15,0A20,20,0,0,0,95,290.1a13.12,13.12,0,0,1-3.6.77,19.42,19.42,0,0,1-2.86,0c-.46,0-.92-.07-1.36-.13-.47.14-.94.26-1.42.36l-.83.2a14.09,14.09,0,0,0-3,1.23,21.76,21.76,0,0,1-9.82,2.37h-1c-5.49-.09-9.93-1.84-12.31-4A18,18,0,0,0,55,288.29l-.55-.25a20.16,20.16,0,0,1-2.62.2h-.54a15.4,15.4,0,0,1-6.44-1.31c-1.11-.56-2.17-1.1-3.12-1.5-8.17-.51-14.58-3.66-17.37-7.35a21.17,21.17,0,0,0-3.46-3.68l-.4-.36a14.36,14.36,0,0,1-1.8-.49c-.39-.57-.82-1.22-1.35-1.86a26.33,26.33,0,0,1-3-3.73,1.89,1.89,0,0,1,0-1.56c-2.92-1.37-5-3.31-5.62-5.35a4.89,4.89,0,0,1-.08-2.32c.74-4.15,6.38-7.85,14-8.33A.92.92,0,0,1,22.75,250.18Z"/><path class="cls-22" d="M22.78,250.69c.68-.74,1.93-1.51,3.07-2.56a15.88,15.88,0,0,0,1.83-2.07,16.17,16.17,0,0,1,6.37-1.18,18.89,18.89,0,0,1,3.65.34,6.88,6.88,0,0,0,.35,2.84,22.64,22.64,0,0,0,2.18,4.48,3.1,3.1,0,0,1,.39,2.33A4.36,4.36,0,0,0,41,258.1l.18.06c.38.12.76.25,1.13.39a13.9,13.9,0,0,1,3.43,1.87c.5,0,1,.06,1.49.11,6.07.62,11,2.75,13.6,5.32a12.43,12.43,0,0,0,4.73,2.89,11.11,11.11,0,0,0,1.76.41,14,14,0,0,1,3.16,1c.48-.11,1-.2,1.49-.27a16.55,16.55,0,0,1,6,.32,13.73,13.73,0,0,0,2.59.43,12,12,0,0,0,3.59-.36,13.27,13.27,0,0,1,2.08-.34,21.24,21.24,0,0,1,6.21-3,11.19,11.19,0,0,0,4.23-2.42c-.11-.32-.23-.67-.39-1a13.54,13.54,0,0,0-3.84-4.81,8.06,8.06,0,0,1-2.65-3.44,3.82,3.82,0,0,1-.28-1.82,4.24,4.24,0,0,1,.88-2,16.76,16.76,0,0,0,1-1.54,10.28,10.28,0,0,0-1.67-2.4,22.06,22.06,0,0,0-4.27-3.3,3.64,3.64,0,0,1-.8-.67,5.9,5.9,0,0,1,3.65-2.08,17.48,17.48,0,0,1,6.3-.25,13.46,13.46,0,0,1,2,.45c2.4,1.35,5.09,2.81,6.62,3.89l.22.18c.46,0,.92,0,1.39,0h.42c8.4.07,14.66,4,15.24,8.19a2.58,2.58,0,0,1,0,.29l.37.21.08.12a8.41,8.41,0,0,0,2.67,2.28,12.31,12.31,0,0,0,3.81,1.27c.13,0,.61.06.71.09,6.91.89,11.52,4.65,11.52,8,0,3.64-2.26,6.29-7.17,7.69a2.44,2.44,0,0,1-.1.24,2.24,2.24,0,0,1-.46.64,29.45,29.45,0,0,1-7.22,4.5l-.62.16a13.51,13.51,0,0,1-4.85,2.1c-.07,0-.46.09-.56.13a14.08,14.08,0,0,0-3.68,1.75,21.72,21.72,0,0,1-11.19,4c-.42,0-.84,0-1.27.07a14.82,14.82,0,0,1-2.55.74l-.43.07-.54.08-.14,0a13.28,13.28,0,0,0-3.59,1.23,11.76,11.76,0,0,1-3.61.87,18.15,18.15,0,0,1-2.88.06c-.46,0-.93-.06-1.38-.12-.48.11-1,.2-1.45.27l-.85.15a10.94,10.94,0,0,0-3,1.2,20.93,20.93,0,0,1-9.86,2.52h-1c-5.65-.07-10.13-1.92-12.36-4.08a12.38,12.38,0,0,0-3.9-2.6l-.59-.2a20,20,0,0,1-2.6.2h-.54a14.65,14.65,0,0,1-6.37-1.35A23.15,23.15,0,0,0,41.74,285c-8.31-.51-14.71-3.79-17.27-7.48A14.17,14.17,0,0,0,21,273.89l-.44-.32a12.8,12.8,0,0,1-1.79-.5,12.3,12.3,0,0,0-1.09-2c-1-1.39-2.25-2.62-3-3.72a1.86,1.86,0,0,1-.24-1.41c-2.8-1.34-4.75-3.21-5.27-5.13a4.4,4.4,0,0,1,0-2.19c.88-3.79,6.21-7.25,13.52-7.72A1.86,1.86,0,0,1,22.78,250.69Z"/><path class="cls-23" d="M22.81,251.2a29.19,29.19,0,0,0,3.2-2.43,10.28,10.28,0,0,0,1.7-2.21,15.63,15.63,0,0,1,6.34-1.21,18.52,18.52,0,0,1,3.65.35,3.89,3.89,0,0,0-.44,3,12.27,12.27,0,0,0,2.09,4.61,3.32,3.32,0,0,1,.65,2.32c-.18,1.82.65,3.14,1.31,3.34l.18.05q.6.13,1.17.3a16.19,16.19,0,0,1,3.63,1.56c.5,0,1,.08,1.49.13,6.16.73,11,3,13.43,5.7a9.64,9.64,0,0,0,4.7,2.88,8.37,8.37,0,0,0,1.81.25,14,14,0,0,1,3.3.61,14.64,14.64,0,0,1,1.5-.23,15.87,15.87,0,0,1,6,.51,10.38,10.38,0,0,0,2.57.47,9.09,9.09,0,0,0,3.57-.55,13.75,13.75,0,0,1,2-.56,21.29,21.29,0,0,1,6.26-2.9,9,9,0,0,0,4.13-2.57,6.82,6.82,0,0,0-.24-1.1,10.12,10.12,0,0,0-3.68-4.91,8.37,8.37,0,0,1-2.86-3.29,3.55,3.55,0,0,1-.37-1.81,4.13,4.13,0,0,1,.88-2,11.42,11.42,0,0,0,1-1.54,7,7,0,0,0-1.34-2.65,13,13,0,0,0-4.24-3.31,4.72,4.72,0,0,1-.89-.58A6.42,6.42,0,0,1,89,241.73a17.12,17.12,0,0,1,6,0,13.36,13.36,0,0,1,1.85.5,55.56,55.56,0,0,0,6.28,3.81l.24.15c.44,0,.88,0,1.33,0h.4c8.15.06,14.14,3.85,14.81,7.65l0,.27a2.83,2.83,0,0,1,.31.26s0,.09.07.14a6.81,6.81,0,0,0,2.42,2.61,10.26,10.26,0,0,0,3.8,1.33c.11,0,.63,0,.71.07,7.11.71,11.86,4.47,11.86,7.62s-1.82,5.79-6.74,7.21l-.12.21a2.76,2.76,0,0,1-.5.54c-1.72,1.36-4.43,3.15-6.55,4.51-.18.06-.39.13-.62.19a13.16,13.16,0,0,1-5,1.89c-.05,0-.48.07-.57.1a11,11,0,0,0-3.71,1.74,20.93,20.93,0,0,1-11.17,4.36c-.43,0-.85.07-1.29.09a16.27,16.27,0,0,1-2.62.62l-.43.05-.55.06h-.15a10.43,10.43,0,0,0-3.6,1.28,10.64,10.64,0,0,1-3.61,1,20.77,20.77,0,0,1-2.9.1c-.47,0-.93-.06-1.39-.12s-1,.14-1.49.18a6.44,6.44,0,0,0-.87.1,8.64,8.64,0,0,0-3.06,1.18A20.26,20.26,0,0,1,72.33,294c-.35,0-.69,0-1,0-5.8-.05-10.3-2-12.4-4.2a9.4,9.4,0,0,0-4-2.53c-.21-.06-.41-.11-.62-.15a19.68,19.68,0,0,1-2.58.2h-.54a13.84,13.84,0,0,1-6.3-1.4,14.15,14.15,0,0,0-3.1-1.41c-8.46-.52-14.83-3.94-17.17-7.61a10.32,10.32,0,0,0-3.59-3.5l-.46-.28a13.82,13.82,0,0,1-1.8-.52,7.8,7.8,0,0,0-.83-2.18,25.57,25.57,0,0,0-3-3.72,2,2,0,0,1-.46-1.26c-2.66-1.31-4.5-3.1-4.92-4.9a4.08,4.08,0,0,1,.14-2.06c1-3.43,6-6.65,13-7.1A1.83,1.83,0,0,1,22.81,251.2Z"/><path class="cls-24" d="M22.84,251.71a12.73,12.73,0,0,0,3.33-2.3,7.79,7.79,0,0,0,1.56-2.34,14.81,14.81,0,0,1,6.32-1.25,17.57,17.57,0,0,1,3.66.37,3.52,3.52,0,0,0-1.23,3.23,8.67,8.67,0,0,0,2,4.75,3.58,3.58,0,0,1,.91,2.3c0,1.94,1.16,3.3,2.23,3.45l.19,0c.4.07.8.14,1.2.23a20,20,0,0,1,3.83,1.23c.5,0,1,.1,1.49.17,6.26.83,11.06,3.33,13.25,6.08a8,8,0,0,0,4.69,2.86,7.73,7.73,0,0,0,1.85.09,13.33,13.33,0,0,1,3.44.24c.49-.08,1-.15,1.51-.19a15.27,15.27,0,0,1,6,.69,7.9,7.9,0,0,0,2.57.52,7.38,7.38,0,0,0,3.54-.74,15.67,15.67,0,0,1,2-.78,21.36,21.36,0,0,1,6.31-2.8,7.5,7.5,0,0,0,4-2.72,5.2,5.2,0,0,0-.1-1.16,8,8,0,0,0-3.5-5,8.79,8.79,0,0,1-3.08-3.14,3.51,3.51,0,0,1-.46-1.81,3.79,3.79,0,0,1,.89-2,8.93,8.93,0,0,0,1-1.55,5.83,5.83,0,0,0-1-2.9A9.37,9.37,0,0,0,87.07,244a5,5,0,0,1-1-.5,7.5,7.5,0,0,1,3.66-1.39,16.66,16.66,0,0,1,5.79.16,10.83,10.83,0,0,1,1.75.55,19.21,19.21,0,0,0,5.93,3.72l.26.11,1.27-.05h.38c7.9.05,13.63,3.66,14.37,7.11a2,2,0,0,1,0,.26,3.4,3.4,0,0,1,.26.29.75.75,0,0,0,0,.16,5.83,5.83,0,0,0,2.18,2.94,8.28,8.28,0,0,0,3.79,1.39c.09,0,.65,0,.71.05,7.32.53,12.2,4.29,12.2,7.28,0,2.68-1.37,5.28-6.31,6.73l-.15.17a2.67,2.67,0,0,1-.53.45,44.86,44.86,0,0,0-5.89,4.53l-.61.22a13.11,13.11,0,0,1-5.16,1.66s-.52.06-.59.08a8.93,8.93,0,0,0-3.75,1.73,20.17,20.17,0,0,1-11.15,4.68c-.43,0-.86.08-1.3.11a19.4,19.4,0,0,1-2.68.5l-.44,0-.56,0h-.15a8.25,8.25,0,0,0-3.61,1.33,9.94,9.94,0,0,1-3.62,1.07,18,18,0,0,1-2.91.14c-.48,0-1,0-1.42-.1s-1,.07-1.53.07a6.77,6.77,0,0,0-.89.06,7.29,7.29,0,0,0-3.09,1.16,19.68,19.68,0,0,1-9.95,2.79H71.38c-5.95,0-10.49-2.12-12.45-4.32a7.67,7.67,0,0,0-4-2.46c-.22,0-.44-.08-.65-.1a19.8,19.8,0,0,1-2.57.2h-.53a13.06,13.06,0,0,1-6.25-1.44A9.85,9.85,0,0,0,41.8,284c-8.6-.53-14.95-4.08-17.06-7.75a8.27,8.27,0,0,0-3.66-3.41l-.5-.24a12.67,12.67,0,0,1-1.79-.53,6.35,6.35,0,0,0-.57-2.33,12.91,12.91,0,0,0-3-3.73,2.5,2.5,0,0,1-.67-1.1c-2.54-1.28-4.26-3-4.57-4.68a3.69,3.69,0,0,1,.24-1.93c1.11-3.07,5.84-6,12.49-6.49A.88.88,0,0,1,22.84,251.71Z"/><path class="cls-25" d="M22.88,252.22a8.38,8.38,0,0,0,3.46-2.17,6.53,6.53,0,0,0,1.42-2.48,14.08,14.08,0,0,1,6.29-1.27,17.36,17.36,0,0,1,3.66.37,3.85,3.85,0,0,0-2,3.43,6.93,6.93,0,0,0,1.9,4.89,3.93,3.93,0,0,1,1.16,2.28,3.75,3.75,0,0,0,3.16,3.56l.19,0c.42,0,.83.08,1.24.14a23.88,23.88,0,0,1,4,.92c.5,0,1,.11,1.49.19,6.35.95,11.11,3.62,13.08,6.46a6.81,6.81,0,0,0,4.67,2.85,6.28,6.28,0,0,0,1.89-.08,13.58,13.58,0,0,1,3.59-.12c.49-.07,1-.12,1.52-.15a14.45,14.45,0,0,1,6,.88,7,7,0,0,0,2.56.57,6.38,6.38,0,0,0,3.51-.94,13,13,0,0,1,2-1,21.21,21.21,0,0,1,6.36-2.7A6.51,6.51,0,0,0,98,265a5.53,5.53,0,0,0,0-1.23,6.73,6.73,0,0,0-3.34-5.1,9.06,9.06,0,0,1-3.29-3,3.24,3.24,0,0,1-.55-1.8,3.58,3.58,0,0,1,.9-2,7.5,7.5,0,0,0,.95-1.55,5.21,5.21,0,0,0-.68-3.16,7.31,7.31,0,0,0-4.19-3.31,7.26,7.26,0,0,1-1.07-.41,9.34,9.34,0,0,1,3.66-1.06,16.42,16.42,0,0,1,5.54.37,8.12,8.12,0,0,1,1.64.61,10.81,10.81,0,0,0,5.6,3.63l.27.07c.39,0,.8,0,1.2,0h.38c7.64,0,13.11,3.45,13.92,6.55,0,.09,0,.17,0,.25a2.49,2.49,0,0,1,.2.34c0,.06,0,.12,0,.18a5.39,5.39,0,0,0,1.94,3.26,7.07,7.07,0,0,0,3.77,1.46l.72,0c7.53.36,12.53,4.12,12.53,6.94,0,2.2-.91,4.77-5.87,6.25l-.17.13a3.85,3.85,0,0,1-.56.36,14.76,14.76,0,0,0-5.23,4.54,6.35,6.35,0,0,1-.61.25,13.24,13.24,0,0,1-5.31,1.45s-.55,0-.61.05a7.41,7.41,0,0,0-3.78,1.72,19.6,19.6,0,0,1-11.14,5l-1.31.13a23.53,23.53,0,0,1-2.74.38h-.46l-.56,0h-.16a7,7,0,0,0-3.62,1.37,9.21,9.21,0,0,1-3.63,1.18,18.82,18.82,0,0,1-2.92.17c-.48,0-1,0-1.43-.09s-1,0-1.57,0a5.53,5.53,0,0,0-.91,0,6.38,6.38,0,0,0-3.13,1.14,19.18,19.18,0,0,1-10,2.92l-1,0c-6.11,0-10.68-2.22-12.5-4.45a6.62,6.62,0,0,0-4.13-2.38c-.23,0-.45,0-.68,0a17.9,17.9,0,0,1-2.55.19h-.53a12.41,12.41,0,0,1-6.18-1.48,7.65,7.65,0,0,0-3.07-1.33c-8.74-.54-15.06-4.22-17-7.88a6.84,6.84,0,0,0-3.73-3.31l-.53-.21a11.31,11.31,0,0,1-1.78-.54,5.48,5.48,0,0,0-.32-2.49,8.53,8.53,0,0,0-3-3.73,3.71,3.71,0,0,1-.89-.94c-2.4-1.25-4-2.91-4.21-4.46a3.45,3.45,0,0,1,.34-1.8c1.22-2.71,5.67-5.45,12-5.87A1.11,1.11,0,0,1,22.88,252.22Z"/><path class="cls-26" d="M22.91,252.73a6.29,6.29,0,0,0,3.59-2,5.72,5.72,0,0,0,1.29-2.62,13.53,13.53,0,0,1,6.26-1.3,17.25,17.25,0,0,1,3.67.38,4.45,4.45,0,0,0-2.82,3.62,5.88,5.88,0,0,0,1.81,5,4.41,4.41,0,0,1,1.42,2.26,4.41,4.41,0,0,0,4.09,3.68h.19l1.27.06a28.34,28.34,0,0,1,4.23.6c.5.06,1,.13,1.49.21,6.44,1.07,11.15,3.92,12.91,6.84A5.84,5.84,0,0,0,67,272.29a5.58,5.58,0,0,0,1.94-.23,13.52,13.52,0,0,1,3.72-.49,15.08,15.08,0,0,1,1.53-.11,13.83,13.83,0,0,1,6.06,1.07,5.9,5.9,0,0,0,2.55.61A5.65,5.65,0,0,0,86.25,272a14.09,14.09,0,0,1,2-1.21,21.3,21.3,0,0,1,6.41-2.6,5.73,5.73,0,0,0,3.82-3,5,5,0,0,0,.19-1.3,5.83,5.83,0,0,0-3.17-5.19,9.61,9.61,0,0,1-3.5-2.84,3.14,3.14,0,0,1-.64-1.79,3.36,3.36,0,0,1,.9-2,6,6,0,0,0,.94-1.57,5.09,5.09,0,0,0-.34-3.41,6,6,0,0,0-4.18-3.31,10,10,0,0,1-1.15-.32,12,12,0,0,1,3.66-.72,15.47,15.47,0,0,1,5.28.58A7,7,0,0,1,98,244a7.12,7.12,0,0,0,5.25,3.55l.28,0c.38,0,.77,0,1.15-.05H105c7.39,0,12.61,3.25,13.48,6a2.17,2.17,0,0,1,.07.24,1.82,1.82,0,0,1,.13.37,1.34,1.34,0,0,0,0,.2,5.17,5.17,0,0,0,1.7,3.6,6.1,6.1,0,0,0,3.75,1.52h.72c7.73.17,12.87,3.94,12.87,6.59,0,1.72-.46,4.26-5.44,5.77l-.2.1c-.18.09-.38.18-.59.26a8,8,0,0,0-4.56,4.56c-.17.09-.37.18-.61.28a13.78,13.78,0,0,1-5.47,1.23l-.62,0a6.17,6.17,0,0,0-3.82,1.71,18.92,18.92,0,0,1-11.12,5.31c-.42.06-.86.11-1.31.15a24.1,24.1,0,0,1-2.82.27H100a6,6,0,0,0-3.63,1.43,8.74,8.74,0,0,1-3.64,1.27,17.42,17.42,0,0,1-2.94.21c-.49,0-1,0-1.44-.07s-1.08-.06-1.61-.12a4.83,4.83,0,0,0-.93,0,5.74,5.74,0,0,0-3.17,1.11,18.6,18.6,0,0,1-10,3.06c-.35,0-.7,0-1.06,0-6.27,0-10.86-2.32-12.55-4.56a5.5,5.5,0,0,0-4.92-2.3,17.66,17.66,0,0,1-2.54.18H51a11.71,11.71,0,0,1-6.11-1.52,6.23,6.23,0,0,0-3.06-1.28c-8.89-.55-15.16-4.37-16.86-8a5.88,5.88,0,0,0-3.79-3.23l-.56-.16a11.49,11.49,0,0,1-1.78-.56,5.2,5.2,0,0,0-.07-2.65,6.37,6.37,0,0,0-3-3.72,6.51,6.51,0,0,1-1.1-.8c-2.27-1.21-3.76-2.81-3.86-4.23a3,3,0,0,1,.45-1.67c1.3-2.37,5.48-4.85,11.45-5.26Z"/><path class="cls-27" d="M71.65,292.09c-6.42,0-11-2.42-12.6-4.68a5.22,5.22,0,0,0-4.28-2.24,4.74,4.74,0,0,0-.75.06,17.49,17.49,0,0,1-2.52.18c-3.45,0-5.81-1-6.56-1.58a5.22,5.22,0,0,0-3-1.23c-9-.56-15.26-4.52-16.76-8.15a5.18,5.18,0,0,0-3.86-3.13,11.86,11.86,0,0,1-2.36-.69,5.38,5.38,0,0,0,.19-2.82A5.22,5.22,0,0,0,16,264.09c-2.88-1.23-4.83-3.1-4.83-4.65,0-2.29,4.47-5.77,11.73-6.2a5.2,5.2,0,0,0,4.87-4.66,12.79,12.79,0,0,1,6.24-1.34,16.4,16.4,0,0,1,3.68.4,5.21,5.21,0,0,0-1.9,9,5.06,5.06,0,0,1,1.68,2.24,5.21,5.21,0,0,0,5,3.79h.19c.43,0,.87,0,1.3,0,9.63,0,16.67,3.9,18.66,7.74a5.22,5.22,0,0,0,4.63,2.82,5.15,5.15,0,0,0,2-.39,14.58,14.58,0,0,1,5.4-.93,13.28,13.28,0,0,1,6.08,1.26,5.19,5.19,0,0,0,6-.67,19.13,19.13,0,0,1,8.42-3.93,5.2,5.2,0,0,0,1-9.81c-2.7-1.25-4.45-3-4.45-4.48a3.18,3.18,0,0,1,.91-2,5.2,5.2,0,0,0-3.24-8.55,12.53,12.53,0,0,1-1.24-.23,16.94,16.94,0,0,1,3.66-.38c3.57,0,5.81,1,6.47,1.49a5.22,5.22,0,0,0,4.91,3.47h.3c.47,0,1-.05,1.43-.05,7.78,0,13,3.62,13.19,6.11,0,.07,0,.14,0,.22a5.2,5.2,0,0,0,5.2,5.5l.72,0c7.94,0,13.2,3.76,13.2,6.25,0,1.31,0,4-5.85,5.52a5.23,5.23,0,0,0-3.9,4.57,12.78,12.78,0,0,1-6.22,1.33h-.64a5.18,5.18,0,0,0-3.85,1.7c-2.48,2.71-7.14,5.94-15.31,5.94l-.47,0-.58,0h-.17a5.21,5.21,0,0,0-3.64,1.47c-.54.53-2.87,1.62-6.6,1.62a16.74,16.74,0,0,1-3.11-.28,5,5,0,0,0-1-.09,5.19,5.19,0,0,0-3.2,1.1C80.21,290.89,76,292.09,71.65,292.09Z"/><path class="cls-28" d="M115.06,257.88c-8.33,0-15.36,3.45-17.63,8.18-.51.19-1,.39-1.48.61a36,36,0,0,0-26.37.16,21.36,21.36,0,0,0-2.12-.88c-.23-6.2-8.36-11.2-18.39-11.2s-18.41,5.14-18.41,11.47c0,4.29,3.8,8,9.4,10,.23,6.2,8.37,11.19,18.39,11.19a29.17,29.17,0,0,0,4.45-.35c4.23,4.11,11.62,6.83,20,6.83s15.69-2.68,19.93-6.73a30.4,30.4,0,0,0,3.86.25c8.33,0,15.36-3.45,17.63-8.18,5.45-2,9.11-5.66,9.11-9.88C133.47,263,125.23,257.88,115.06,257.88Z"/><path class="cls-29" d="M31.09,266.15c0-3.86,3.45-7.41,8.68-9.26a26.09,26.09,0,0,1,10.3-1.42,20.36,20.36,0,0,1,2.77.38,50.31,50.31,0,0,1,5.09,1.37c.5.15,1,.32,1.45.5.64.25,1.26.51,1.86.77s1.11.49,1.62.75c3.28,1.68,5.49,4.17,6,7,.74.24,1.45.51,2.13.8a32.9,32.9,0,0,1,8.76-1.9c.65-.06,1.32-.1,2-.14.85-.06,1.7-.1,2.57-.13l1.21,0c1.36,0,2.67,0,3.91.07a31.65,31.65,0,0,1,7.67,1.47c.48-.21,1-.41,1.49-.59a10.58,10.58,0,0,1,3.2-3.4c3.72-2.56,9.06-3.67,14.47-3.51,9.24.27,16.52,5,16.22,10.88a9.25,9.25,0,0,1-3.25,6.16,16.91,16.91,0,0,1-5.53,3.29c-2.27,4.44-9,7.68-17,7.68a27.72,27.72,0,0,1-3.18-.18l-.67-.08a34.39,34.39,0,0,1-3.18,2.32,31.41,31.41,0,0,1-16.76,4.42c-6.61,0-12.61-1.71-16.84-4.47a34.93,34.93,0,0,1-3.2-2.36l-.77.1a27.62,27.62,0,0,1-3.68.25c-6.66,0-12.38-2.23-15.32-5.4a10.69,10.69,0,0,1-2.91-5.77C34.76,273.79,31.09,270.21,31.09,266.15Z"/><path class="cls-30" d="M31.52,266.07c0-3.71,3.62-7.29,9.13-8.95a25.3,25.3,0,0,1,10.41-.94,15.72,15.72,0,0,1,2.67.62c1.55.5,3.23,1.17,4.93,1.71.5.15,1,.33,1.46.52l1.9.74c.58.22,1.14.42,1.66.63,3.3,1.34,5.67,3.53,6.5,6.05a22.59,22.59,0,0,1,2.15.73,32.77,32.77,0,0,1,8.75-1.52l2-.09,2.53-.16,1.2-.06c1.35-.05,2.64-.26,3.81-.21a41.61,41.61,0,0,1,7.56.89c.48-.2,1-.39,1.5-.56a10.13,10.13,0,0,1,3.36-3.11c4.1-2.39,9.46-2.85,14.34-2.54,8.31.54,14.64,4.89,14,10.29a10,10,0,0,1-3.21,5.81,16,16,0,0,1-5.23,3.22c-2.28,4.14-8.7,7.17-16.33,7.17a27.72,27.72,0,0,1-3.18-.18l-.67-.07c-1,.71-2.08,1.46-3.22,2.23-4.14,2.78-10.14,4.5-16.72,4.5s-12.65-1.74-16.79-4.55c-1.15-.79-2.25-1.55-3.24-2.28l-.78.1a27.81,27.81,0,0,1-3.67.25c-6.79,0-12.49-2.34-15.11-5.47a14,14,0,0,1-3-5.67C35.06,273.34,31.52,269.91,31.52,266.07Z"/><path class="cls-31" d="M31.94,266c0-3.58,3.81-7.19,9.59-8.65a24.16,24.16,0,0,1,10.52-.45,11,11,0,0,1,2.57.85,38.19,38.19,0,0,0,4.77,2c.5.16,1,.34,1.48.54.65.27,1.3.5,1.93.71s1.17.36,1.7.52a11.6,11.6,0,0,1,7,5.14c.75.19,1.47.41,2.16.65a32.62,32.62,0,0,1,8.76-1.13c.65,0,1.31,0,2,0s1.65-.1,2.48-.19l1.19-.11c1.35-.09,2.6-.33,3.71-.47a26.43,26.43,0,0,1,7.45.31c.48-.2,1-.38,1.5-.55a10.53,10.53,0,0,1,3.53-2.82c4.51-2.2,9.86-2,14.21-1.56,7.37.81,12.75,4.76,11.84,9.7a11,11,0,0,1-3.18,5.46,15,15,0,0,1-4.92,3.14c-2.29,3.85-8.4,6.68-15.67,6.68a27.72,27.72,0,0,1-3.18-.18l-.68-.08c-1,.64-2.14,1.36-3.26,2.15-4.06,2.83-10.09,4.59-16.67,4.59S70.11,290.47,66,287.6c-1.12-.8-2.25-1.54-3.28-2.18l-.78.09a26.2,26.2,0,0,1-3.67.26c-6.91,0-12.59-2.47-14.89-5.56a21.09,21.09,0,0,1-3-5.56C35.36,272.89,31.94,269.61,31.94,266Z"/><path class="cls-32" d="M32.37,265.93c0-3.44,4-7.08,10-8.35a23.39,23.39,0,0,1,10.64,0,8.62,8.62,0,0,1,2.46,1.09,19.15,19.15,0,0,0,4.61,2.38c.5.16,1,.35,1.49.55a16.56,16.56,0,0,0,2,.69c.61.17,1.2.29,1.75.4A13,13,0,0,1,72.9,267c.75.16,1.47.36,2.18.58a32.15,32.15,0,0,1,8.75-.75,18.82,18.82,0,0,0,2,0c.81,0,1.63-.11,2.44-.23l1.18-.15a25.94,25.94,0,0,0,3.61-.75,23.87,23.87,0,0,1,7.34-.27c.48-.19,1-.37,1.51-.53a10.81,10.81,0,0,1,3.68-2.52c4.93-2,10.25-1.23,14.1-.59,6.41,1.07,10.86,4.64,9.64,9.11a12.64,12.64,0,0,1-3.14,5.11,14.11,14.11,0,0,1-4.62,3.07c-2.29,3.56-8.1,6.18-15,6.18a27.85,27.85,0,0,1-3.18-.19l-.68-.07a26.31,26.31,0,0,0-3.3,2c-4,2.89-10,4.68-16.63,4.68S70,289.89,66,287a27.18,27.18,0,0,0-3.33-2.1l-.78.1a28.05,28.05,0,0,1-3.67.26c-7,0-12.68-2.61-14.68-5.64a48.72,48.72,0,0,1-3.08-5.46C35.67,272.44,32.37,269.31,32.37,265.93Z"/><path class="cls-33" d="M32.8,265.86c0-3.3,4.17-7,10.49-8.05a22.48,22.48,0,0,1,10.75.52,6.76,6.76,0,0,1,2.36,1.32,12.54,12.54,0,0,0,4.45,2.72,14.56,14.56,0,0,1,1.51.57,12.76,12.76,0,0,0,2,.66,15.19,15.19,0,0,0,1.78.28,15,15,0,0,1,8.11,3.31c.75.15,1.48.32,2.19.52a31.68,31.68,0,0,1,8.76-.37,13,13,0,0,0,2,.07,16.16,16.16,0,0,0,2.4-.26l1.18-.2a15.92,15.92,0,0,0,3.5-1,20.53,20.53,0,0,1,7.23-.86c.49-.18,1-.35,1.52-.5a11.48,11.48,0,0,1,3.84-2.24c5.36-1.77,10.63-.41,14,.4,5.44,1.31,9,4.51,7.45,8.51a16.15,16.15,0,0,1-3.11,4.76,12.94,12.94,0,0,1-4.31,3c-2.3,3.27-7.8,5.68-14.37,5.68a27.67,27.67,0,0,1-3.17-.19l-.68-.07a16.65,16.65,0,0,0-3.35,2c-3.9,2.94-10,4.77-16.59,4.77S69.93,289.31,66,286.33a16.83,16.83,0,0,0-3.38-2l-.78.09a26.42,26.42,0,0,1-3.67.26c-7.16,0-12.76-2.75-14.46-5.71-1.06-1.86-2.18-3.85-3.14-5.35C36,272,32.8,269,32.8,265.86Z"/><path class="cls-34" d="M33.22,265.79c0-3.17,4.35-6.85,10.94-7.75A21.69,21.69,0,0,1,55,259a5.76,5.76,0,0,1,2.26,1.56,9.32,9.32,0,0,0,4.28,3c.52.17,1,.37,1.53.59a10.05,10.05,0,0,0,2.05.63A15,15,0,0,0,67,265a19.65,19.65,0,0,1,8.65,2.4c.75.12,1.49.27,2.2.44a31.73,31.73,0,0,1,8.76,0,10.86,10.86,0,0,0,2,.13,12.5,12.5,0,0,0,2.36-.3c.38-.08.77-.17,1.17-.24a11.7,11.7,0,0,0,3.41-1.28,17.52,17.52,0,0,1,7.11-1.44c.49-.18,1-.34,1.52-.49a12.28,12.28,0,0,1,4-1.94c5.79-1.53,11,.38,13.84,1.37,4.46,1.53,7.09,4.38,5.26,7.93a25.49,25.49,0,0,1-3.07,4.4,11.93,11.93,0,0,1-4,2.92c-2.31,3-7.5,5.18-13.72,5.18a25.7,25.7,0,0,1-3.17-.2c-.23,0-.45-.05-.68-.06a11.79,11.79,0,0,0-3.39,1.88c-3.82,3-9.93,4.85-16.55,4.85S69.85,288.73,66,285.7a12,12,0,0,0-3.41-1.92c-.26,0-.53.05-.79.09a26.63,26.63,0,0,1-3.66.27c-7.29,0-12.85-2.9-14.25-5.79a27.41,27.41,0,0,0-3.2-5.25C36.27,271.54,33.22,268.71,33.22,265.79Z"/><path class="cls-35" d="M33.65,265.72c0-3,4.53-6.74,11.39-7.45a20.83,20.83,0,0,1,11,1.49,4.93,4.93,0,0,1,2.14,1.8,7.68,7.68,0,0,0,4.13,3.38,16.47,16.47,0,0,1,1.55.6,8.37,8.37,0,0,0,2.08.61,7.86,7.86,0,0,0,1.87.05A19.89,19.89,0,0,1,77,267.69c.75.09,1.49.22,2.22.37a30.88,30.88,0,0,1,8.76.4,8.69,8.69,0,0,0,2,.18,10.06,10.06,0,0,0,2.31-.33c.38-.1.77-.2,1.16-.28a9,9,0,0,0,3.31-1.56c1.44-1,4-1.73,7-2,.49-.17,1-.33,1.53-.47a13.56,13.56,0,0,1,4.17-1.65c6.23-1.26,11.31,1.16,13.71,2.35,3.46,1.71,5.21,4.26,3.08,7.34-.82,1.18-1.92,2.6-3,4.05a10.81,10.81,0,0,1-3.71,2.84c-2.3,2.69-7.19,4.68-13,4.68a25.57,25.57,0,0,1-3.17-.2l-.69-.06a9.38,9.38,0,0,0-3.43,1.8c-3.74,3.05-9.88,4.94-16.5,4.94s-12.85-1.92-16.58-5a9.29,9.29,0,0,0-3.46-1.83,7.29,7.29,0,0,0-.79.08,25.15,25.15,0,0,1-3.66.27c-7.41,0-12.92-3-14-5.87a14.88,14.88,0,0,0-3.25-5.14C36.57,271.09,33.65,268.4,33.65,265.72Z"/><path class="cls-36" d="M34.07,265.65c0-2.9,4.72-6.62,11.85-7.15a20.07,20.07,0,0,1,11.1,2,4.53,4.53,0,0,1,2,2,6.66,6.66,0,0,0,4,3.72,14.45,14.45,0,0,1,1.56.62,7.44,7.44,0,0,0,2.12.58,6.73,6.73,0,0,0,1.91-.07,22.75,22.75,0,0,1,9.72.58c.76.07,1.5.17,2.23.29a30.24,30.24,0,0,1,8.76.8,7.29,7.29,0,0,0,2,.22,8,8,0,0,0,2.27-.36c.38-.11.76-.23,1.15-.33a7.29,7.29,0,0,0,3.21-1.82c1.26-1.18,3.77-2.14,6.89-2.61.49-.16,1-.31,1.54-.45a15.18,15.18,0,0,1,4.33-1.35c6.66-1,12,1.51,13.59,3.32,2.77,1.24,3.31,4.13.88,6.75a37.93,37.93,0,0,0-3,3.7,9.81,9.81,0,0,1-3.41,2.77c-2.31,2.39-6.89,4.18-12.4,4.18a25.7,25.7,0,0,1-3.17-.2l-.68-.06a7.82,7.82,0,0,0-3.48,1.7c-3.66,3.11-9.83,5-16.46,5S69.67,287.57,66,284.43a7.69,7.69,0,0,0-3.5-1.73,7.23,7.23,0,0,0-.79.07,25.27,25.27,0,0,1-3.66.28c-7.53,0-13-3.21-13.82-5.95a10.19,10.19,0,0,0-3.31-5C36.88,270.64,34.07,268.1,34.07,265.65Z"/><path class="cls-37" d="M34.5,265.58c0-2.76,4.9-6.5,12.3-6.85,4.82-.24,8.82.89,11.21,2.46A4.26,4.26,0,0,1,60,263.46a5.92,5.92,0,0,0,3.81,4.05,16.89,16.89,0,0,1,1.58.64,6.15,6.15,0,0,0,2.16.55,6.07,6.07,0,0,0,2-.18,25.28,25.28,0,0,1,10.25-.33c.76,0,1.51.12,2.25.22a30,30,0,0,1,8.76,1.18,6.52,6.52,0,0,0,2,.28,6.85,6.85,0,0,0,2.23-.4c.37-.13.75-.26,1.15-.37a6.28,6.28,0,0,0,3.1-2.1c1.09-1.33,3.57-2.54,6.78-3.18.5-.16,1-.31,1.54-.43a17.37,17.37,0,0,1,4.5-1.07c7.09-.67,12.38,2.26,13.46,4.3,1.85,1.4,1.43,4-1.31,6.16a14,14,0,0,0-3,3.35,8.87,8.87,0,0,1-3.1,2.7c-2.32,2.09-6.59,3.67-11.75,3.67a25.82,25.82,0,0,1-3.17-.2,5.19,5.19,0,0,0-.68-.05,6.61,6.61,0,0,0-3.52,1.61C95.35,287,89.15,289,82.51,289S69.59,287,66,283.8a6.65,6.65,0,0,0-3.54-1.65,7.2,7.2,0,0,0-.8.07,24,24,0,0,1-3.66.28c-7.65,0-13-3.36-13.6-6a7.7,7.7,0,0,0-3.37-4.94C37.18,270.19,34.5,267.8,34.5,265.58Z"/><path class="cls-38" d="M34.93,265.51c0-2.63,5.08-6.37,12.74-6.56,5-.11,9.07,1.25,11.34,2.95a4.2,4.2,0,0,1,1.83,2.51,5.47,5.47,0,0,0,3.65,4.39,16.13,16.13,0,0,1,1.59.65,5.68,5.68,0,0,0,2.2.53,5.59,5.59,0,0,0,2-.3,27.45,27.45,0,0,1,10.79-1.25c.76,0,1.52.08,2.26.15a29.14,29.14,0,0,1,8.76,1.57,5.78,5.78,0,0,0,2,.33,5.89,5.89,0,0,0,2.19-.43c.37-.15.75-.29,1.14-.41a5.66,5.66,0,0,0,3-2.37c.93-1.49,3.35-2.95,6.66-3.77.5-.15,1-.29,1.55-.41a20.32,20.32,0,0,1,4.66-.78c7.52-.34,12.46,3.12,13.33,5.28.68,1.68-.45,3.89-3.5,5.58a7.83,7.83,0,0,0-2.94,3,7.77,7.77,0,0,1-2.8,2.62c-2.33,1.81-6.29,3.18-11.09,3.18a24,24,0,0,1-3.17-.21,5.34,5.34,0,0,0-.69-.05,5.87,5.87,0,0,0-3.56,1.53c-3.49,3.21-9.73,5.2-16.38,5.2s-13-2-16.45-5.26a5.74,5.74,0,0,0-3.58-1.56,5.39,5.39,0,0,0-.8.06A24.13,24.13,0,0,1,58,282c-7.79,0-13.07-3.52-13.4-6.1A6.19,6.19,0,0,0,41.16,271C37.48,269.74,34.93,267.5,34.93,265.51Z"/><path class="cls-39" d="M82.42,287.89c-6.72,0-13-2.05-16.41-5.36a5.22,5.22,0,0,0-3.63-1.47,5.49,5.49,0,0,0-.8.06,24.23,24.23,0,0,1-3.65.29c-7.91,0-13.09-3.66-13.18-6.18a5.2,5.2,0,0,0-3.49-4.72c-3.48-1.22-5.91-3.31-5.91-5.07,0-2.49,5.27-6.26,13.2-6.26s13.09,3.66,13.18,6.18a5.22,5.22,0,0,0,3.48,4.73,16.71,16.71,0,0,1,1.62.66,5.12,5.12,0,0,0,4.26.09,30.91,30.91,0,0,1,22.37-.13,5.14,5.14,0,0,0,4.11-.08c.37-.16.74-.32,1.13-.46a5.17,5.17,0,0,0,2.91-2.64c1.21-2.53,6.16-5.22,12.93-5.22,7.94,0,13.2,3.76,13.2,6.25,0,1.71-2.34,3.76-5.69,5a5.24,5.24,0,0,0-2.91,2.64c-1.21,2.53-6.16,5.22-12.93,5.22a24.11,24.11,0,0,1-3.17-.21,5.32,5.32,0,0,0-.69,0,5.19,5.19,0,0,0-3.59,1.44C95.34,285.86,89.08,287.89,82.42,287.89Z"/><path class="cls-40" d="M120.09,251.6a4.49,4.49,0,0,0,.56-2.11c0-3.7-4.81-6.69-10.74-6.69l-.55,0a5.74,5.74,0,0,0,.17-1.31c0-4.73-6.15-8.56-13.75-8.56a20.71,20.71,0,0,0-5.76.8,14.59,14.59,0,0,0-7.46-1.89c-3.94,0-7.37,1.32-9.24,3.28a19.62,19.62,0,0,0-8.91-2c-5.45,0-10.17,2-12.47,4.79A15.53,15.53,0,0,0,46,236.81c-5.93,0-10.74,3-10.74,6.68a4.43,4.43,0,0,0,.35,1.68,21.07,21.07,0,0,0-7-1.16c-7.86,0-14.23,4-14.23,8.86a6.52,6.52,0,0,0,1.87,4.38c-2.83,1.77-4.58,4.21-4.58,6.91,0,5,6,9.13,13.81,9.74.09,5,6.67,9.1,14.78,9.1,5.48,0,10.26-1.86,12.81-4.62C56.36,281.72,62.25,284,69,284c5.82,0,11-1.66,14.44-4.26a26.42,26.42,0,0,0,11.61,2.53c9.82,0,17.85-4.72,18.6-10.71h.15c9.17,0,16.6-4.63,16.6-10.34C130.4,256.85,126.14,253.15,120.09,251.6ZM80.6,263.21A26.52,26.52,0,0,0,69,260.69c-7.84,0-14.54,3-17.31,7.27a18,18,0,0,0-8.52-3.19,6,6,0,0,0,0-.61,7.78,7.78,0,0,0-3.26-6,7,7,0,0,0,2.88-5.33,6,6,0,0,0-1-3.21,16.13,16.13,0,0,0,4.14.52,14,14,0,0,0,8.22-2.39,18.73,18.73,0,0,0,10.19,2.76c6.23,0,11.5-2.54,13.3-6a16.18,16.18,0,0,0,4.85.72c.28,0,.56,0,.83,0,2.22,2.88,6.93,4.87,12.39,4.87a22.12,22.12,0,0,0,3.41-.27,5.73,5.73,0,0,0,2.74,4.15,10.1,10.1,0,0,0-4.39,5.12c-.82-.07-1.65-.12-2.49-.12C89.23,259,84,260.61,80.6,263.21Z"/><path class="cls-41" d="M67.94,280.67c-5.64,0-10.88-1.78-13.7-4.63A3.11,3.11,0,0,0,52,275.1h0a3.11,3.11,0,0,0-2.25,1c-2,2.19-6.16,3.61-10.52,3.61-6.8,0-11.6-3.18-11.64-6a3.13,3.13,0,0,0-2.89-3.06c-6.75-.52-10.93-3.84-10.93-6.62,0-1.47,1.14-3,3.11-4.27A3.13,3.13,0,0,0,17.5,255a3.42,3.42,0,0,1-1.05-2.26c0-2.71,4.75-5.73,11.1-5.73a18.26,18.26,0,0,1,6,1,3.13,3.13,0,0,0,3.93-4.14,1.29,1.29,0,0,1-.12-.48c0-1.42,3-3.56,7.61-3.56a12.64,12.64,0,0,1,4.75.88,3.12,3.12,0,0,0,3.62-.91c1.79-2.21,5.74-3.64,10.05-3.64a16.58,16.58,0,0,1,7.48,1.66,3.11,3.11,0,0,0,3.69-.62c1-1.07,3.45-2.32,7-2.32a11.67,11.67,0,0,1,5.85,1.44,3.15,3.15,0,0,0,1.62.45,3.26,3.26,0,0,0,.87-.12,17.51,17.51,0,0,1,4.89-.68c6.08,0,10.62,2.87,10.62,5.44a2.43,2.43,0,0,1-.09.56,3.13,3.13,0,0,0,3,3.87l.55,0c4.58,0,7.62,2.15,7.62,3.56a1.41,1.41,0,0,1-.19.64,3.11,3.11,0,0,0-.11,2.74,3.14,3.14,0,0,0,2.09,1.77c4.69,1.2,8,3.89,8,6.54,0,3.41-5.53,7.21-13.48,7.21h-.14a3.13,3.13,0,0,0-3.1,2.73c-.49,3.84-6.55,8-15.5,8a23.51,23.51,0,0,1-10.22-2.2,3.1,3.1,0,0,0-3.28.31C77.46,279.35,72.88,280.67,67.94,280.67ZM40.8,246.39a3.12,3.12,0,0,0-2.65,4.78,2.89,2.89,0,0,1,.5,1.55,4.13,4.13,0,0,1-1.74,2.91,3.12,3.12,0,0,0,0,4.84A4.94,4.94,0,0,1,39,264l0,.3a3.12,3.12,0,0,0,2.72,3.41,14.79,14.79,0,0,1,7,2.58,3.16,3.16,0,0,0,1.89.63,3.29,3.29,0,0,0,.54-.05,3.13,3.13,0,0,0,2.08-1.37c1.89-2.91,7.17-5.85,14.69-5.85a23.49,23.49,0,0,1,10.21,2.2,3.1,3.1,0,0,0,3.28-.31c3-2.3,7.61-3.62,12.56-3.62.65,0,1.36,0,2.23.1h.26a3.12,3.12,0,0,0,3-2.14,7.24,7.24,0,0,1,3.1-3.47,3.11,3.11,0,0,0,.1-5.2,2.85,2.85,0,0,1-1.39-1.82,3.12,3.12,0,0,0-3.12-2.89,2.7,2.7,0,0,0-.49,0,19.56,19.56,0,0,1-2.92.23c-4.91,0-8.51-1.83-9.91-3.65a3.13,3.13,0,0,0-2.48-1.21h-.15l-.69,0a12.78,12.78,0,0,1-3.9-.58,3.4,3.4,0,0,0-.94-.14,3.14,3.14,0,0,0-2.78,1.69c-1.11,2.16-5.09,4.35-10.52,4.35A15.69,15.69,0,0,1,54.89,245a3.12,3.12,0,0,0-3.59.1,11.11,11.11,0,0,1-6.37,1.77,13.52,13.52,0,0,1-3.34-.41A3.06,3.06,0,0,0,40.8,246.39Z"/><path class="cls-42" d="M67.68,276.65c-5,0-9.8-1.58-12.2-4a5.2,5.2,0,0,0-3.72-1.56h-.08a5.21,5.21,0,0,0-3.74,1.67c-1.36,1.47-4.66,2.95-9,2.95-6.17,0-9.54-2.82-9.56-4a5.22,5.22,0,0,0-4.81-5.11c-5.83-.45-9-3.23-9-4.54,0-.7.83-1.69,2.13-2.5a5.2,5.2,0,0,0,1.08-7.93,1.59,1.59,0,0,1-.5-.86c0-.93,3.1-3.64,9-3.64a16,16,0,0,1,5.27.85,5.16,5.16,0,0,0,1.73.3,5,5,0,0,0,1.08-.12,5.08,5.08,0,0,0,.75,2.17,1,1,0,0,1,.19.44c0,.24-.31.75-1,1.31a5.22,5.22,0,0,0,0,8.06A3.27,3.27,0,0,1,36.69,262l0,.19a5.2,5.2,0,0,0,4.54,5.68,12.93,12.93,0,0,1,6,2.17,5.22,5.22,0,0,0,3.15,1.06,5.45,5.45,0,0,0,.89-.08,5.21,5.21,0,0,0,3.47-2.29c1.54-2.36,6.24-4.9,12.94-4.9a21.27,21.27,0,0,1,9.3,2,5.21,5.21,0,0,0,5.46-.52c2.64-2,6.86-3.2,11.29-3.2.61,0,1.27,0,2.06.09l.44,0a5.21,5.21,0,0,0,4.94-3.57,5.32,5.32,0,0,1,2.24-2.37,5.2,5.2,0,0,0,.17-8.67,2.67,2.67,0,0,1-.52-.46,5.21,5.21,0,0,0-5.18-4.62,5.66,5.66,0,0,0-.82.06,16.53,16.53,0,0,1-2.59.21c-4.18,0-7.21-1.47-8.26-2.83a5.21,5.21,0,0,0-4.13-2h-.27l-.57,0a11.19,11.19,0,0,1-3.27-.48,5.35,5.35,0,0,0-1.57-.24,5.18,5.18,0,0,0-1.62.26,5.2,5.2,0,0,0,1-.82A8.11,8.11,0,0,1,81.24,235,9.6,9.6,0,0,1,86,236.12a5.25,5.25,0,0,0,2.69.75,5.07,5.07,0,0,0,1.44-.21,15.71,15.71,0,0,1,4.32-.59c5.51,0,8.54,2.52,8.54,3.35h0l0,.07a5.21,5.21,0,0,0,5.06,6.46l.55,0a8.43,8.43,0,0,1,5.38,1.57,5.21,5.21,0,0,0,3.51,7.07c4,1,6.4,3.14,6.4,4.52,0,1.81-4.3,5.11-11.32,5.13h-.22a5.21,5.21,0,0,0-5.17,4.56c-.32,2.56-5.59,6.15-13.44,6.15a21.4,21.4,0,0,1-9.29-2,5.21,5.21,0,0,0-5.46.52C76.34,275.45,72.12,276.65,67.68,276.65Zm-4.58-33.4a13.59,13.59,0,0,1-7.31-1.89,5.19,5.19,0,0,0-2.82-.87,5.17,5.17,0,0,0,1.7-1.37c1.12-1.38,4.23-2.86,8.43-2.86a14.57,14.57,0,0,1,6.52,1.42,5.23,5.23,0,0,0,2.39.58,5,5,0,0,0,1.62-.26,5.21,5.21,0,0,0-1.86,2C71.1,241.33,67.88,243.25,63.1,243.25Zm-18.42-.37a11.23,11.23,0,0,1-2.82-.35,5.28,5.28,0,0,0-1.31-.16,5,5,0,0,0-1.08.11,4.69,4.69,0,0,0-.2-1,8.43,8.43,0,0,1,5.41-1.59,10.27,10.27,0,0,1,4,.72,5.3,5.3,0,0,0,1.94.4,4.58,4.58,0,0,0-.76.47A9,9,0,0,1,44.68,242.88Z"/><path class="cls-43" d="M67.68,273.52c-4.09,0-8.19-1.26-10-3.08a2.09,2.09,0,0,0-.22-.2c1-1.19,4.41-3.31,10.19-3.31a18.07,18.07,0,0,1,7.91,1.67,8.37,8.37,0,0,0,8.74-.83c2.08-1.59,5.69-2.57,9.4-2.57.53,0,1.1,0,1.8.09.23,0,.46,0,.7,0a8.34,8.34,0,0,0,7.87-5.6,3.89,3.89,0,0,1,1-.83A8.33,8.33,0,0,0,109,252a8.45,8.45,0,0,0-.48-3h.23a8.42,8.42,0,0,1,1.74.2,8.43,8.43,0,0,0,.7,3.63,8.27,8.27,0,0,0,5.57,4.72,10.77,10.77,0,0,1,3.45,1.49,13.55,13.55,0,0,1-7.55,2h-.27a8.36,8.36,0,0,0-8.26,7.19c-.51,1-4.2,3.52-10.35,3.52a18.2,18.2,0,0,1-7.9-1.66,8.31,8.31,0,0,0-8.74.83C75,272.54,71.4,273.52,67.68,273.52ZM39,272.58c-3.67,0-5.78-1.18-6.49-1.75a8.3,8.3,0,0,0-7.64-7.33,12.3,12.3,0,0,1-5.2-1.45,8.33,8.33,0,0,0,2.68-10.81,11.78,11.78,0,0,1,5-1,13,13,0,0,1,4.23.68l.46.15a8.34,8.34,0,0,0,1.4,11.49l.13.11A8.29,8.29,0,0,0,40.83,271a12.37,12.37,0,0,1,3,.75A13.24,13.24,0,0,1,39,272.58ZM63.1,240.12a13.68,13.68,0,0,1-3.15-.36,12.84,12.84,0,0,1,3.15-.37,13.79,13.79,0,0,1,3.14.36A12.94,12.94,0,0,1,63.1,240.12Zm31.37-.47a13.58,13.58,0,0,1-2.45-.22,12.34,12.34,0,0,1,2.45-.23,13.76,13.76,0,0,1,2.48.22l-.39.05A12.56,12.56,0,0,1,94.47,239.65Z"/><path class="cls-44" d="M99.24,150.48l22,11.7V147.37a11.52,11.52,0,0,0-1.15-5.35l-9.49-18c-2-3.89-6.46-4.58-11.32-1.77h0Z"/><path class="cls-45" d="M49.58,150.48l-22,11.7V147.37A11.52,11.52,0,0,1,28.77,142l9.48-18c2-3.89,6.46-4.58,11.33-1.77h0Z"/><path class="cls-46" d="M86.08,200.54c0,12.43-5.22,45-11.67,45s-11.67-32.53-11.67-45C62.74,189.6,68,187,74.41,187S86.08,189.6,86.08,200.54Z"/><path class="cls-47" d="M85.46,200.39c0,12.13-4.95,44.35-11,44.35s-11-32.22-11-44.35c0-10.68,5-13.26,11-13.26S85.46,189.71,85.46,200.39Z"/><path class="cls-48" d="M84.84,200.24c0,11.83-4.67,43.74-10.43,43.74S64,212.07,64,200.24c0-10.42,4.67-12.94,10.43-12.94S84.84,189.82,84.84,200.24Z"/><path class="cls-49" d="M84.21,200.08c0,11.55-4.39,43.15-9.8,43.15s-9.8-31.6-9.8-43.15c0-10.16,4.38-12.6,9.8-12.6S84.21,189.92,84.21,200.08Z"/><path class="cls-50" d="M83.59,199.93c0,11.25-4.11,42.54-9.18,42.54s-9.18-31.29-9.18-42.54c0-9.9,4.11-12.28,9.18-12.28S83.59,190,83.59,199.93Z"/><path class="cls-51" d="M83,199.78c0,10.95-3.84,41.93-8.56,41.93s-8.56-31-8.56-41.93c0-9.64,3.83-12,8.56-12S83,190.14,83,199.78Z"/><path class="cls-52" d="M82.34,199.63c0,10.66-3.55,41.32-7.93,41.32s-7.93-30.66-7.93-41.32c0-9.38,3.55-11.64,7.93-11.64S82.34,190.25,82.34,199.63Z"/><path class="cls-53" d="M81.72,199.48c0,10.36-3.27,40.72-7.31,40.72s-7.31-30.36-7.31-40.72c0-9.12,3.27-11.32,7.31-11.32S81.72,190.36,81.72,199.48Z"/><path class="cls-54" d="M81.1,199.33c0,10.06-3,40.11-6.69,40.11s-6.69-30.05-6.69-40.11c0-8.86,3-11,6.69-11S81.1,190.47,81.1,199.33Z"/><path class="cls-55" d="M80.47,199.18c0,9.77-2.71,39.5-6.06,39.5s-6.07-29.73-6.07-39.5c0-8.6,2.72-10.67,6.07-10.67S80.47,190.58,80.47,199.18Z"/><path class="cls-56" d="M79.85,199c0,9.47-2.44,38.89-5.44,38.89S69,208.5,69,199c0-8.34,2.43-10.35,5.44-10.35S79.85,190.69,79.85,199Z"/><path class="cls-57" d="M79.23,198.88c0,9.17-2.16,38.29-4.82,38.29s-4.82-29.12-4.82-38.29c0-8.08,2.16-10,4.82-10S79.23,190.8,79.23,198.88Z"/><path class="cls-58" d="M84.87,183.18H64v2.95h0a.28.28,0,0,0,0,.09c0,3.36,4.68,6.09,10.46,6.09s10.46-2.73,10.46-6.09c0,0,0-.06,0-.09h0Z"/><path class="cls-59" d="M99.39,157h-50v14.84h0c0,.07,0,.13,0,.2,0,8,11.18,14.54,25,14.54s25-6.51,25-14.54c0-.07,0-.13,0-.2h0Z"/><path class="cls-60" d="M99.39,157.55h-50v11.83h0c0,.06,0,.11,0,.16,0,6.41,11.18,11.6,25,11.6s25-5.19,25-11.6c0,0,0-.1,0-.16h0Z"/><path class="cls-61" d="M113.46,107.9A87.7,87.7,0,0,0,99,47.65c-.51-.74-1-1.47-1.55-2.19l-23-31.53-23,31.53c-.53.72-1,1.45-1.55,2.19A87.7,87.7,0,0,0,35.36,107.9l5.88,49.16h0a2.44,2.44,0,0,0,0,.27c0,10.67,14.85,19.32,33.17,19.32s33.17-8.65,33.17-19.32c0-.09,0-.18,0-.27h0Z"/><path class="cls-62" d="M97.43,45.46l-23-31.53-23,31.53c-.13.17-.25.35-.38.53,4,5.22,13,8.86,23.4,8.86S93.82,51.21,97.8,46Z"/><path class="cls-63" d="M97.43,45.46l-23-31.53-23,31.53c-.13.17-.25.35-.38.53,4,5.22,13,8.86,23.4,8.86S93.82,51.21,97.8,46Z"/><path class="cls-64" d="M113.46,107.9A87.7,87.7,0,0,0,99,47.65c-.51-.74-1-1.47-1.55-2.19l-23-31.53-23,31.53c-.53.72-1,1.45-1.55,2.19A87.7,87.7,0,0,0,35.36,107.9l5.88,49.16h0a2.44,2.44,0,0,0,0,.27c0,10.67,14.85,19.32,33.17,19.32s33.17-8.65,33.17-19.32c0-.09,0-.18,0-.27h0Z"/><path class="cls-65" d="M90,80.58c-6.6-26.5-20.26-57-17-58.49,5.72-2.59,29.6,27.13,36.19,53.63,5.81,23.33-.74,81.41-6.78,82.91S95.8,103.91,90,80.58Z"/><path class="cls-66" d="M69.38,121c0,4.59-1.58,7.83-4.15,9.41-.08,0-2.47,1.56-2.55,1.61-2.68,1.49-1-1.9-5-4.25-8.18-4.72-14.81-16.16-14.81-25.55,0-4.64-4.29-4.68-1.67-6.23l3.06-1.68c2.67-1.45,6.32-1.18,10.34,1.14C62.75,100.14,69.38,111.57,69.38,121Z"/><ellipse class="cls-67" cx="51.65" cy="114.14" rx="12.06" ry="20.88" transform="matrix(0.86, -0.5, 0.5, 0.86, -50.54, 41.67)"/><ellipse class="cls-68" cx="51.65" cy="114.14" rx="9.79" ry="16.96" transform="translate(-50.54 41.67) rotate(-30.31)"/><path class="cls-69" d="M61.18,117.28c0,5.74-4.06,8-9.06,5.16s-9-9.87-9-15.61,4-8,9-5.16S61.18,111.54,61.18,117.28Z"/><path class="cls-70" d="M54,127c-6.64-3.84-12-13.12-12-20.75,0-3.51,1.14-6,3-7.4-3.25.59-5.4,3.58-5.4,8.39,0,7.63,5.39,16.92,12,20.75,3.58,2.07,6.79,2.13,9,.55A9.94,9.94,0,0,1,54,127Z"/><path class="cls-71" d="M52.08,96.77c-3.92-2.27-8-2.12-9.85-1.23a12.57,12.57,0,0,1,9.28,1.65c8.18,4.72,14.81,16.16,14.81,25.55,0,4.88-2.23,8.34-5.11,9.78,3-1.11,5.69-4.63,5.69-10.2C66.9,112.93,60.26,101.49,52.08,96.77Z"/><path class="cls-72" d="M49.82,170.78,32.34,204.26l-3.54-2.09V188a20.72,20.72,0,0,1,1.11-6.39L39,153.86c2-6,6.19-11.52,10.84-14.21h0l3.4,2.06Z"/><path class="cls-73" d="M53.35,172.87l-21,31.39V190.08a21.09,21.09,0,0,1,1.1-6.39l9.08-27.75c1.95-6,6.18-11.51,10.83-14.2h0Z"/><path class="cls-74" d="M32.65,190.47a20.69,20.69,0,0,1,1.1-6.39l9.08-27.75c1.87-5.71,5.81-11,10.22-13.82v-.85h0c-4.66,2.69-8.88,8.23-10.84,14.21l-9.08,27.75A21,21,0,0,0,32,190v14.17l.62-.92Z"/><path class="cls-75" d="M99,170.78l17.48,33.48,3.54-2.09V188a20.72,20.72,0,0,0-1.11-6.39l-9.08-27.75c-2-6-6.18-11.52-10.83-14.21h0l-3.4,2.06Z"/><path class="cls-76" d="M95.46,172.87l21,31.39V190.08a21.09,21.09,0,0,0-1.1-6.39l-9.08-27.75c-2-6-6.18-11.51-10.84-14.2h0Z"/><path class="cls-77" d="M115.84,183.69l-9.08-27.75c-2-6-6.18-11.51-10.83-14.2h0v.18a27.1,27.1,0,0,1,9.73,13.5l9.08,27.75a20.79,20.79,0,0,1,1.1,6.39v13.05l1.1,1.65V190.08A20.79,20.79,0,0,0,115.84,183.69Z"/></g></g></svg>